%TF.GenerationSoftware,KiCad,Pcbnew,9.0.6*%
%TF.CreationDate,2026-03-28T18:35:52-05:00*%
%TF.ProjectId,learnboard,6c656172-6e62-46f6-9172-642e6b696361,rev?*%
%TF.SameCoordinates,Original*%
%TF.FileFunction,Soldermask,Top*%
%TF.FilePolarity,Negative*%
%FSLAX46Y46*%
G04 Gerber Fmt 4.6, Leading zero omitted, Abs format (unit mm)*
G04 Created by KiCad (PCBNEW 9.0.6) date 2026-03-28 18:35:52*
%MOMM*%
%LPD*%
G01*
G04 APERTURE LIST*
G04 Aperture macros list*
%AMRoundRect*
0 Rectangle with rounded corners*
0 $1 Rounding radius*
0 $2 $3 $4 $5 $6 $7 $8 $9 X,Y pos of 4 corners*
0 Add a 4 corners polygon primitive as box body*
4,1,4,$2,$3,$4,$5,$6,$7,$8,$9,$2,$3,0*
0 Add four circle primitives for the rounded corners*
1,1,$1+$1,$2,$3*
1,1,$1+$1,$4,$5*
1,1,$1+$1,$6,$7*
1,1,$1+$1,$8,$9*
0 Add four rect primitives between the rounded corners*
20,1,$1+$1,$2,$3,$4,$5,0*
20,1,$1+$1,$4,$5,$6,$7,0*
20,1,$1+$1,$6,$7,$8,$9,0*
20,1,$1+$1,$8,$9,$2,$3,0*%
%AMFreePoly0*
4,1,37,0.800000,0.796148,0.878414,0.796148,1.032228,0.765552,1.177117,0.705537,1.307515,0.618408,1.418408,0.507515,1.505537,0.377117,1.565552,0.232228,1.596148,0.078414,1.596148,-0.078414,1.565552,-0.232228,1.505537,-0.377117,1.418408,-0.507515,1.307515,-0.618408,1.177117,-0.705537,1.032228,-0.765552,0.878414,-0.796148,0.800000,-0.796148,0.800000,-0.800000,-1.400000,-0.800000,
-1.403843,-0.796157,-1.439018,-0.796157,-1.511114,-0.766294,-1.566294,-0.711114,-1.596157,-0.639018,-1.596157,-0.603843,-1.600000,-0.600000,-1.600000,0.600000,-1.596157,0.603843,-1.596157,0.639018,-1.566294,0.711114,-1.511114,0.766294,-1.439018,0.796157,-1.403843,0.796157,-1.400000,0.800000,0.800000,0.800000,0.800000,0.796148,0.800000,0.796148,$1*%
%AMFreePoly1*
4,1,37,1.403843,0.796157,1.439018,0.796157,1.511114,0.766294,1.566294,0.711114,1.596157,0.639018,1.596157,0.603843,1.600000,0.600000,1.600000,-0.600000,1.596157,-0.603843,1.596157,-0.639018,1.566294,-0.711114,1.511114,-0.766294,1.439018,-0.796157,1.403843,-0.796157,1.400000,-0.800000,-0.800000,-0.800000,-0.800000,-0.796148,-0.878414,-0.796148,-1.032228,-0.765552,-1.177117,-0.705537,
-1.307515,-0.618408,-1.418408,-0.507515,-1.505537,-0.377117,-1.565552,-0.232228,-1.596148,-0.078414,-1.596148,0.078414,-1.565552,0.232228,-1.505537,0.377117,-1.418408,0.507515,-1.307515,0.618408,-1.177117,0.705537,-1.032228,0.765552,-0.878414,0.796148,-0.800000,0.796148,-0.800000,0.800000,1.400000,0.800000,1.403843,0.796157,1.403843,0.796157,$1*%
%AMFreePoly2*
4,1,37,0.603843,0.796157,0.639018,0.796157,0.711114,0.766294,0.766294,0.711114,0.796157,0.639018,0.796157,0.603843,0.800000,0.600000,0.800000,-0.600000,0.796157,-0.603843,0.796157,-0.639018,0.766294,-0.711114,0.711114,-0.766294,0.639018,-0.796157,0.603843,-0.796157,0.600000,-0.800000,0.000000,-0.800000,0.000000,-0.796148,-0.078414,-0.796148,-0.232228,-0.765552,-0.377117,-0.705537,
-0.507515,-0.618408,-0.618408,-0.507515,-0.705537,-0.377117,-0.765552,-0.232228,-0.796148,-0.078414,-0.796148,0.078414,-0.765552,0.232228,-0.705537,0.377117,-0.618408,0.507515,-0.507515,0.618408,-0.377117,0.705537,-0.232228,0.765552,-0.078414,0.796148,0.000000,0.796148,0.000000,0.800000,0.600000,0.800000,0.603843,0.796157,0.603843,0.796157,$1*%
%AMFreePoly3*
4,1,37,0.000000,0.796148,0.078414,0.796148,0.232228,0.765552,0.377117,0.705537,0.507515,0.618408,0.618408,0.507515,0.705537,0.377117,0.765552,0.232228,0.796148,0.078414,0.796148,-0.078414,0.765552,-0.232228,0.705537,-0.377117,0.618408,-0.507515,0.507515,-0.618408,0.377117,-0.705537,0.232228,-0.765552,0.078414,-0.796148,0.000000,-0.796148,0.000000,-0.800000,-0.600000,-0.800000,
-0.603843,-0.796157,-0.639018,-0.796157,-0.711114,-0.766294,-0.766294,-0.711114,-0.796157,-0.639018,-0.796157,-0.603843,-0.800000,-0.600000,-0.800000,0.600000,-0.796157,0.603843,-0.796157,0.639018,-0.766294,0.711114,-0.711114,0.766294,-0.639018,0.796157,-0.603843,0.796157,-0.600000,0.800000,0.000000,0.800000,0.000000,0.796148,0.000000,0.796148,$1*%
G04 Aperture macros list end*
%ADD10R,1.800000X1.800000*%
%ADD11C,1.800000*%
%ADD12C,1.700000*%
%ADD13C,4.000000*%
%ADD14C,2.200000*%
%ADD15C,1.400000*%
%ADD16C,5.500000*%
%ADD17C,1.850000*%
%ADD18FreePoly0,90.000000*%
%ADD19RoundRect,0.200000X0.600000X-0.600000X0.600000X0.600000X-0.600000X0.600000X-0.600000X-0.600000X0*%
%ADD20RoundRect,0.800000X0.000010X-0.800000X0.000010X0.800000X-0.000010X0.800000X-0.000010X-0.800000X0*%
%ADD21C,1.600000*%
%ADD22FreePoly1,90.000000*%
%ADD23FreePoly2,90.000000*%
%ADD24FreePoly3,90.000000*%
%ADD25RoundRect,0.100000X-0.637500X-0.100000X0.637500X-0.100000X0.637500X0.100000X-0.637500X0.100000X0*%
%ADD26R,2.000000X2.000000*%
%ADD27C,2.000000*%
%ADD28R,3.200000X2.000000*%
G04 APERTURE END LIST*
D10*
%TO.C,D19*%
X243800000Y-210050000D03*
D11*
X246340000Y-210050000D03*
%TD*%
D10*
%TO.C,D18*%
X169840000Y-208825000D03*
D11*
X172380000Y-208825000D03*
%TD*%
D12*
%TO.C,SW9*%
X273470000Y-191900000D03*
D13*
X278550000Y-191900000D03*
D12*
X283630000Y-191900000D03*
D14*
X281090000Y-186820000D03*
X274740000Y-189360000D03*
%TD*%
D15*
%TO.C,R10*%
X191840000Y-135130000D03*
X196920000Y-135130000D03*
%TD*%
D12*
%TO.C,SW15*%
X342790000Y-190640000D03*
D13*
X347870000Y-190640000D03*
D12*
X352950000Y-190640000D03*
D14*
X350410000Y-185560000D03*
X344060000Y-188100000D03*
%TD*%
D16*
%TO.C,H2*%
X144250000Y-175250000D03*
%TD*%
D10*
%TO.C,D22*%
X130910000Y-208170000D03*
D11*
X133450000Y-208170000D03*
%TD*%
D12*
%TO.C,SW14*%
X309330000Y-232980000D03*
D13*
X314410000Y-232980000D03*
D12*
X319490000Y-232980000D03*
D14*
X316950000Y-227900000D03*
X310600000Y-230440000D03*
%TD*%
D15*
%TO.C,R7*%
X178620000Y-141900000D03*
X183700000Y-141900000D03*
%TD*%
D12*
%TO.C,SW4*%
X88660000Y-228670000D03*
D13*
X93740000Y-228670000D03*
D12*
X98820000Y-228670000D03*
D14*
X96280000Y-223590000D03*
X89930000Y-226130000D03*
%TD*%
D10*
%TO.C,D25*%
X347380000Y-210945000D03*
D11*
X349920000Y-210945000D03*
%TD*%
D14*
%TO.C,A1*%
X82560000Y-141625000D03*
D17*
X85590000Y-141325000D03*
X85590000Y-136475000D03*
D14*
X82560000Y-136175000D03*
D18*
X82430000Y-148590000D03*
D19*
X82430000Y-147790000D03*
D20*
X84970000Y-148590000D03*
D21*
X84970000Y-147790000D03*
D22*
X87510000Y-148590000D03*
D23*
X87510000Y-147790000D03*
D20*
X90050000Y-148590000D03*
D21*
X90050000Y-147790000D03*
D20*
X92590000Y-148590000D03*
D21*
X92590000Y-147790000D03*
D20*
X95130000Y-148590000D03*
D21*
X95130000Y-147790000D03*
D20*
X97670000Y-148590000D03*
D21*
X97670000Y-147790000D03*
D22*
X100210000Y-148590000D03*
D23*
X100210000Y-147790000D03*
D20*
X102750000Y-148590000D03*
D21*
X102750000Y-147790000D03*
D20*
X105290000Y-148590000D03*
D21*
X105290000Y-147790000D03*
D20*
X107830000Y-148590000D03*
D21*
X107830000Y-147790000D03*
D20*
X110370000Y-148590000D03*
D21*
X110370000Y-147790000D03*
D22*
X112910000Y-148590000D03*
D23*
X112910000Y-147790000D03*
D20*
X115450000Y-148590000D03*
D21*
X115450000Y-147790000D03*
D20*
X117990000Y-148590000D03*
D21*
X117990000Y-147790000D03*
D20*
X120530000Y-148590000D03*
D21*
X120530000Y-147790000D03*
D20*
X123070000Y-148590000D03*
D21*
X123070000Y-147790000D03*
D22*
X125610000Y-148590000D03*
D23*
X125610000Y-147790000D03*
D20*
X128150000Y-148590000D03*
D21*
X128150000Y-147790000D03*
D20*
X130690000Y-148590000D03*
D21*
X130690000Y-147790000D03*
X130690000Y-130010000D03*
D20*
X130690000Y-129210000D03*
D21*
X128150000Y-130010000D03*
D20*
X128150000Y-129210000D03*
D24*
X125610000Y-130010000D03*
D18*
X125610000Y-129210000D03*
D21*
X123070000Y-130010000D03*
D20*
X123070000Y-129210000D03*
D21*
X120530000Y-130010000D03*
D20*
X120530000Y-129210000D03*
D21*
X117990000Y-130010000D03*
D20*
X117990000Y-129210000D03*
D21*
X115450000Y-130010000D03*
D20*
X115450000Y-129210000D03*
D24*
X112910000Y-130010000D03*
D18*
X112910000Y-129210000D03*
D21*
X110370000Y-130010000D03*
D20*
X110370000Y-129210000D03*
D21*
X107830000Y-130010000D03*
D20*
X107830000Y-129210000D03*
D21*
X105290000Y-130010000D03*
D20*
X105290000Y-129210000D03*
D21*
X102750000Y-130010000D03*
D20*
X102750000Y-129210000D03*
D24*
X100210000Y-130010000D03*
D18*
X100210000Y-129210000D03*
D21*
X97670000Y-130010000D03*
D20*
X97670000Y-129210000D03*
D21*
X95130000Y-130010000D03*
D20*
X95130000Y-129210000D03*
D21*
X92590000Y-130010000D03*
D20*
X92590000Y-129210000D03*
D21*
X90050000Y-130010000D03*
D20*
X90050000Y-129210000D03*
D24*
X87510000Y-130010000D03*
D18*
X87510000Y-129210000D03*
D21*
X84970000Y-130010000D03*
D20*
X84970000Y-129210000D03*
D21*
X82430000Y-130010000D03*
D20*
X82430000Y-129210000D03*
%TD*%
D12*
%TO.C,SW8*%
X166290000Y-228430000D03*
D13*
X171370000Y-228430000D03*
D12*
X176450000Y-228430000D03*
D14*
X173910000Y-223350000D03*
X167560000Y-225890000D03*
%TD*%
D12*
%TO.C,SW2*%
X127240000Y-228910000D03*
D13*
X132320000Y-228910000D03*
D12*
X137400000Y-228910000D03*
D14*
X134860000Y-223830000D03*
X128510000Y-226370000D03*
%TD*%
D12*
%TO.C,SW16*%
X343320000Y-233390000D03*
D13*
X348400000Y-233390000D03*
D12*
X353480000Y-233390000D03*
D14*
X350940000Y-228310000D03*
X344590000Y-230850000D03*
%TD*%
D15*
%TO.C,R2*%
X160120000Y-135180000D03*
X165200000Y-135180000D03*
%TD*%
D25*
%TO.C,U1*%
X259530000Y-125820000D03*
X259530000Y-126470000D03*
X259530000Y-127120000D03*
X259530000Y-127770000D03*
X259530000Y-128420000D03*
X259530000Y-129070000D03*
X259530000Y-129720000D03*
X259530000Y-130370000D03*
X259530000Y-131020000D03*
X259530000Y-131670000D03*
X265255000Y-131670000D03*
X265255000Y-131020000D03*
X265255000Y-130370000D03*
X265255000Y-129720000D03*
X265255000Y-129070000D03*
X265255000Y-128420000D03*
X265255000Y-127770000D03*
X265255000Y-127120000D03*
X265255000Y-126470000D03*
X265255000Y-125820000D03*
%TD*%
D15*
%TO.C,R6*%
X169520000Y-141830000D03*
X174600000Y-141830000D03*
%TD*%
%TO.C,R5*%
X160250000Y-141700000D03*
X165330000Y-141700000D03*
%TD*%
D10*
%TO.C,D21*%
X272690000Y-147615000D03*
D11*
X275230000Y-147615000D03*
%TD*%
D10*
%TO.C,D23*%
X208560000Y-209075000D03*
D11*
X211100000Y-209075000D03*
%TD*%
D26*
%TO.C,SW17*%
X272010000Y-160530000D03*
D27*
X272010000Y-165530000D03*
X272010000Y-163030000D03*
D28*
X279510000Y-157430000D03*
X279510000Y-168630000D03*
D27*
X286510000Y-165530000D03*
X286510000Y-160530000D03*
%TD*%
D12*
%TO.C,SW5*%
X166560000Y-190800000D03*
D13*
X171640000Y-190800000D03*
D12*
X176720000Y-190800000D03*
D14*
X174180000Y-185720000D03*
X167830000Y-188260000D03*
%TD*%
D10*
%TO.C,D24*%
X277050000Y-210445000D03*
D11*
X279590000Y-210445000D03*
%TD*%
D15*
%TO.C,R9*%
X187890000Y-142230000D03*
X192970000Y-142230000D03*
%TD*%
%TO.C,R8*%
X181520000Y-135220000D03*
X186600000Y-135220000D03*
%TD*%
D12*
%TO.C,SW13*%
X310400000Y-190770000D03*
D13*
X315480000Y-190770000D03*
D12*
X320560000Y-190770000D03*
D14*
X318020000Y-185690000D03*
X311670000Y-188230000D03*
%TD*%
D15*
%TO.C,R3*%
X151300000Y-135380000D03*
X156380000Y-135380000D03*
%TD*%
D12*
%TO.C,SW10*%
X273420000Y-232050000D03*
D13*
X278500000Y-232050000D03*
D12*
X283580000Y-232050000D03*
D14*
X281040000Y-226970000D03*
X274690000Y-229510000D03*
%TD*%
D15*
%TO.C,R1*%
X171400000Y-135110000D03*
X176480000Y-135110000D03*
%TD*%
D12*
%TO.C,SW1*%
X127720000Y-191310000D03*
D13*
X132800000Y-191310000D03*
D12*
X137880000Y-191310000D03*
D14*
X135340000Y-186230000D03*
X128990000Y-188770000D03*
%TD*%
D12*
%TO.C,SW6*%
X204960000Y-190540000D03*
D13*
X210040000Y-190540000D03*
D12*
X215120000Y-190540000D03*
D14*
X212580000Y-185460000D03*
X206230000Y-188000000D03*
%TD*%
D15*
%TO.C,R4*%
X151150000Y-141630000D03*
X156230000Y-141630000D03*
%TD*%
D12*
%TO.C,SW3*%
X89370000Y-190850000D03*
D13*
X94450000Y-190850000D03*
D12*
X99530000Y-190850000D03*
D14*
X96990000Y-185770000D03*
X90640000Y-188310000D03*
%TD*%
D10*
%TO.C,D26*%
X280350000Y-147615000D03*
D11*
X282890000Y-147615000D03*
%TD*%
D10*
%TO.C,D17*%
X91660000Y-207700000D03*
D11*
X94200000Y-207700000D03*
%TD*%
D16*
%TO.C,H4*%
X88000000Y-244750000D03*
%TD*%
%TO.C,H3*%
X297750000Y-242500000D03*
%TD*%
D12*
%TO.C,SW11*%
X240530000Y-191580000D03*
D13*
X245610000Y-191580000D03*
D12*
X250690000Y-191580000D03*
D14*
X248150000Y-186500000D03*
X241800000Y-189040000D03*
%TD*%
D12*
%TO.C,SW7*%
X205430000Y-230100000D03*
D13*
X210510000Y-230100000D03*
D12*
X215590000Y-230100000D03*
D14*
X213050000Y-225020000D03*
X206700000Y-227560000D03*
%TD*%
D10*
%TO.C,D20*%
X313570000Y-211735000D03*
D11*
X316110000Y-211735000D03*
%TD*%
D16*
%TO.C,H1*%
X354000000Y-134000000D03*
%TD*%
D12*
%TO.C,SW12*%
X240840000Y-230800000D03*
D13*
X245920000Y-230800000D03*
D12*
X251000000Y-230800000D03*
D14*
X248460000Y-225720000D03*
X242110000Y-228260000D03*
%TD*%
M02*
