ISO-10303-21;
HEADER;
/* Generated by software containing ST-Developer
 * from STEP Tools, Inc. (www.steptools.com) 
 */
/* OPTION: using custom renumber hook */

FILE_DESCRIPTION(
/* description */ ('STEP AP242 Edition 2',
'CAx-IF Rec.Pracs.---Representation and Presentation of Product Manufa
cturing Information (PMI)---4.0---2014-10-13',
'CAx-IF Rec.Pracs.---3D Tessellated Geometry---0.4---2014-09-14','2;1',
'CAx-IF Rec.Pracs.---User Defined Attributes---1.5---2016-08-15'),
/* implementation_level */ '2;1');

FILE_NAME(
/* name */ 'RotaryEncoderTop',
/* time_stamp */ '2026-06-30T16:49:22Z',
/* author */ (''),
/* organization */ (''),
/* preprocessor_version */ 'ST-DEVELOPER v20',
/* originating_system */ 'ONSHAPE BY PTC INC, 1.217',
/* authorisation */ '  ');

FILE_SCHEMA (('AP242_MANAGED_MODEL_BASED_3D_ENGINEERING_MIM_LF { 1 0 10303 442 3 1 4 }'));
ENDSEC;

DATA;
#10=SHAPE_REPRESENTATION_RELATIONSHIP('','',#223,#11);
#11=ADVANCED_BREP_SHAPE_REPRESENTATION('',(#221),#387);
#12=TOROIDAL_SURFACE('',#247,0.006872304473783,0.000627695526217005);
#13=TOROIDAL_SURFACE('',#248,0.00713786796564404,0.000362132034355965);
#14=CONICAL_SURFACE('',#246,0.004750125,0.785398163397448);
#15=CONICAL_SURFACE('',#249,0.004000125,0.785398163397449);
#16=B_SPLINE_SURFACE_WITH_KNOTS('',3,1,((#358,#359),(#360,#361),(#362,#363),
(#364,#365),(#366,#367)),.SURF_OF_LINEAR_EXTRUSION.,.F.,.F.,.F.,(4,1,4),
(2,2),(0.,0.5,1.),(0.,1.),.UNSPECIFIED.);
#17=CYLINDRICAL_SURFACE('',#227,0.003000125);
#18=CYLINDRICAL_SURFACE('',#230,0.004000125);
#19=CYLINDRICAL_SURFACE('',#238,0.0075);
#20=LINE('',#323,#30);
#21=LINE('',#325,#31);
#22=LINE('',#327,#32);
#23=LINE('',#353,#33);
#24=LINE('',#355,#34);
#25=LINE('',#357,#35);
#26=LINE('',#368,#36);
#27=LINE('',#376,#37);
#28=LINE('',#378,#38);
#29=LINE('',#380,#39);
#30=VECTOR('',#256,1.);
#31=VECTOR('',#257,1.);
#32=VECTOR('',#258,1.);
#33=VECTOR('',#291,1.);
#34=VECTOR('',#292,1.);
#35=VECTOR('',#293,1.);
#36=VECTOR('',#294,1.);
#37=VECTOR('',#297,1.);
#38=VECTOR('',#298,1.);
#39=VECTOR('',#301,1.);
#40=B_SPLINE_CURVE_WITH_KNOTS('',3,(#316,#317,#318,#319,#320),
 .UNSPECIFIED.,.F.,.F.,(4,1,4),(0.,0.518676832994671,1.),.UNSPECIFIED.);
#41=B_SPLINE_CURVE_WITH_KNOTS('',3,(#370,#371,#372,#373,#374),
 .UNSPECIFIED.,.F.,.F.,(4,1,4),(0.,0.518676832994671,1.),.UNSPECIFIED.);
#42=ORIENTED_EDGE('',*,*,#86,.T.);
#43=ORIENTED_EDGE('',*,*,#87,.F.);
#44=ORIENTED_EDGE('',*,*,#88,.T.);
#45=ORIENTED_EDGE('',*,*,#89,.F.);
#46=ORIENTED_EDGE('',*,*,#90,.F.);
#47=ORIENTED_EDGE('',*,*,#91,.F.);
#48=ORIENTED_EDGE('',*,*,#92,.T.);
#49=ORIENTED_EDGE('',*,*,#93,.T.);
#50=ORIENTED_EDGE('',*,*,#94,.T.);
#51=ORIENTED_EDGE('',*,*,#95,.T.);
#52=ORIENTED_EDGE('',*,*,#91,.T.);
#53=ORIENTED_EDGE('',*,*,#96,.T.);
#54=ORIENTED_EDGE('',*,*,#97,.T.);
#55=ORIENTED_EDGE('',*,*,#98,.T.);
#56=ORIENTED_EDGE('',*,*,#99,.T.);
#57=ORIENTED_EDGE('',*,*,#92,.F.);
#58=ORIENTED_EDGE('',*,*,#88,.F.);
#59=ORIENTED_EDGE('',*,*,#100,.F.);
#60=ORIENTED_EDGE('',*,*,#101,.T.);
#61=ORIENTED_EDGE('',*,*,#102,.T.);
#62=ORIENTED_EDGE('',*,*,#87,.T.);
#63=ORIENTED_EDGE('',*,*,#103,.F.);
#64=ORIENTED_EDGE('',*,*,#104,.F.);
#65=ORIENTED_EDGE('',*,*,#100,.T.);
#66=ORIENTED_EDGE('',*,*,#90,.T.);
#67=ORIENTED_EDGE('',*,*,#105,.F.);
#68=ORIENTED_EDGE('',*,*,#106,.F.);
#69=ORIENTED_EDGE('',*,*,#103,.T.);
#70=ORIENTED_EDGE('',*,*,#89,.T.);
#71=ORIENTED_EDGE('',*,*,#102,.F.);
#72=ORIENTED_EDGE('',*,*,#107,.F.);
#73=ORIENTED_EDGE('',*,*,#105,.T.);
#74=ORIENTED_EDGE('',*,*,#101,.F.);
#75=ORIENTED_EDGE('',*,*,#104,.T.);
#76=ORIENTED_EDGE('',*,*,#106,.T.);
#77=ORIENTED_EDGE('',*,*,#107,.T.);
#78=ORIENTED_EDGE('',*,*,#94,.F.);
#79=ORIENTED_EDGE('',*,*,#97,.F.);
#80=ORIENTED_EDGE('',*,*,#99,.F.);
#81=ORIENTED_EDGE('',*,*,#86,.F.);
#82=ORIENTED_EDGE('',*,*,#96,.F.);
#83=ORIENTED_EDGE('',*,*,#98,.F.);
#84=ORIENTED_EDGE('',*,*,#95,.F.);
#85=ORIENTED_EDGE('',*,*,#93,.F.);
#86=EDGE_CURVE('',#108,#108,#126,.T.);
#87=EDGE_CURVE('',#109,#110,#40,.T.);
#88=EDGE_CURVE('',#109,#111,#20,.T.);
#89=EDGE_CURVE('',#112,#111,#21,.T.);
#90=EDGE_CURVE('',#110,#112,#22,.T.);
#91=EDGE_CURVE('',#113,#113,#127,.T.);
#92=EDGE_CURVE('',#114,#114,#128,.T.);
#93=EDGE_CURVE('',#115,#115,#129,.T.);
#94=EDGE_CURVE('',#116,#116,#130,.F.);
#95=EDGE_CURVE('',#117,#117,#131,.F.);
#96=EDGE_CURVE('',#118,#118,#132,.F.);
#97=EDGE_CURVE('',#119,#119,#133,.T.);
#98=EDGE_CURVE('',#120,#120,#134,.T.);
#99=EDGE_CURVE('',#121,#121,#135,.F.);
#100=EDGE_CURVE('',#122,#109,#23,.T.);
#101=EDGE_CURVE('',#122,#123,#24,.T.);
#102=EDGE_CURVE('',#123,#111,#25,.T.);
#103=EDGE_CURVE('',#124,#110,#26,.T.);
#104=EDGE_CURVE('',#122,#124,#41,.T.);
#105=EDGE_CURVE('',#125,#112,#27,.T.);
#106=EDGE_CURVE('',#124,#125,#28,.T.);
#107=EDGE_CURVE('',#125,#123,#29,.T.);
#108=VERTEX_POINT('',#315);
#109=VERTEX_POINT('',#321);
#110=VERTEX_POINT('',#322);
#111=VERTEX_POINT('',#324);
#112=VERTEX_POINT('',#326);
#113=VERTEX_POINT('',#330);
#114=VERTEX_POINT('',#332);
#115=VERTEX_POINT('',#335);
#116=VERTEX_POINT('',#337);
#117=VERTEX_POINT('',#340);
#118=VERTEX_POINT('',#343);
#119=VERTEX_POINT('',#345);
#120=VERTEX_POINT('',#348);
#121=VERTEX_POINT('',#350);
#122=VERTEX_POINT('',#354);
#123=VERTEX_POINT('',#356);
#124=VERTEX_POINT('',#369);
#125=VERTEX_POINT('',#377);
#126=CIRCLE('',#226,0.006872304473783);
#127=CIRCLE('',#228,0.003000125);
#128=CIRCLE('',#229,0.003000125);
#129=CIRCLE('',#231,0.004000125);
#130=CIRCLE('',#232,0.004000125);
#131=CIRCLE('',#234,0.003650125);
#132=CIRCLE('',#236,0.00713786796564404);
#133=CIRCLE('',#237,0.004750125);
#134=CIRCLE('',#239,0.0075);
#135=CIRCLE('',#240,0.0075);
#136=EDGE_LOOP('',(#42));
#137=EDGE_LOOP('',(#43,#44,#45,#46));
#138=EDGE_LOOP('',(#47));
#139=EDGE_LOOP('',(#48));
#140=EDGE_LOOP('',(#49));
#141=EDGE_LOOP('',(#50));
#142=EDGE_LOOP('',(#51));
#143=EDGE_LOOP('',(#52));
#144=EDGE_LOOP('',(#53));
#145=EDGE_LOOP('',(#54));
#146=EDGE_LOOP('',(#55));
#147=EDGE_LOOP('',(#56));
#148=EDGE_LOOP('',(#57));
#149=EDGE_LOOP('',(#58,#59,#60,#61));
#150=EDGE_LOOP('',(#62,#63,#64,#65));
#151=EDGE_LOOP('',(#66,#67,#68,#69));
#152=EDGE_LOOP('',(#70,#71,#72,#73));
#153=EDGE_LOOP('',(#74,#75,#76,#77));
#154=EDGE_LOOP('',(#78));
#155=EDGE_LOOP('',(#79));
#156=EDGE_LOOP('',(#80));
#157=EDGE_LOOP('',(#81));
#158=EDGE_LOOP('',(#82));
#159=EDGE_LOOP('',(#83));
#160=EDGE_LOOP('',(#84));
#161=EDGE_LOOP('',(#85));
#162=FACE_BOUND('',#136,.T.);
#163=FACE_BOUND('',#137,.T.);
#164=FACE_BOUND('',#138,.T.);
#165=FACE_BOUND('',#139,.T.);
#166=FACE_BOUND('',#140,.T.);
#167=FACE_BOUND('',#141,.T.);
#168=FACE_BOUND('',#142,.T.);
#169=FACE_BOUND('',#143,.T.);
#170=FACE_BOUND('',#144,.T.);
#171=FACE_BOUND('',#145,.T.);
#172=FACE_BOUND('',#146,.T.);
#173=FACE_BOUND('',#147,.T.);
#174=FACE_BOUND('',#148,.T.);
#175=FACE_BOUND('',#149,.T.);
#176=FACE_BOUND('',#150,.T.);
#177=FACE_BOUND('',#151,.T.);
#178=FACE_BOUND('',#152,.T.);
#179=FACE_BOUND('',#153,.T.);
#180=FACE_BOUND('',#154,.T.);
#181=FACE_BOUND('',#155,.T.);
#182=FACE_BOUND('',#156,.T.);
#183=FACE_BOUND('',#157,.T.);
#184=FACE_BOUND('',#158,.T.);
#185=FACE_BOUND('',#159,.T.);
#186=FACE_BOUND('',#160,.T.);
#187=FACE_BOUND('',#161,.T.);
#188=PLANE('',#225);
#189=PLANE('',#233);
#190=PLANE('',#235);
#191=PLANE('',#241);
#192=PLANE('',#242);
#193=PLANE('',#243);
#194=PLANE('',#244);
#195=PLANE('',#245);
#196=ADVANCED_FACE('',(#162,#163),#188,.T.);
#197=ADVANCED_FACE('',(#164,#165),#17,.F.);
#198=ADVANCED_FACE('',(#166,#167),#18,.T.);
#199=ADVANCED_FACE('',(#168,#169),#189,.F.);
#200=ADVANCED_FACE('',(#170,#171),#190,.F.);
#201=ADVANCED_FACE('',(#172,#173),#19,.T.);
#202=ADVANCED_FACE('',(#174),#191,.F.);
#203=ADVANCED_FACE('',(#175),#192,.T.);
#204=ADVANCED_FACE('',(#176),#16,.F.);
#205=ADVANCED_FACE('',(#177),#193,.F.);
#206=ADVANCED_FACE('',(#178),#194,.F.);
#207=ADVANCED_FACE('',(#179),#195,.T.);
#208=ADVANCED_FACE('',(#180,#181),#14,.T.);
#209=ADVANCED_FACE('',(#182,#183),#12,.T.);
#210=ADVANCED_FACE('',(#184,#185),#13,.T.);
#211=ADVANCED_FACE('',(#186,#187),#15,.T.);
#212=CLOSED_SHELL('',(#196,#197,#198,#199,#200,#201,#202,#203,#204,#205,
#206,#207,#208,#209,#210,#211));
#213=STYLED_ITEM('',(#214),#221);
#214=PRESENTATION_STYLE_ASSIGNMENT((#215));
#215=SURFACE_STYLE_USAGE(.BOTH.,#216);
#216=SURFACE_SIDE_STYLE('',(#217));
#217=SURFACE_STYLE_FILL_AREA(#218);
#218=FILL_AREA_STYLE('',(#219));
#219=FILL_AREA_STYLE_COLOUR('',#220);
#220=COLOUR_RGB('',0.705882352941177,0.745098039215686,0.996078431372549);
#221=MANIFOLD_SOLID_BREP('EncoderCap',#212);
#222=SHAPE_DEFINITION_REPRESENTATION(#392,#223);
#223=SHAPE_REPRESENTATION('EncoderCap',(#224),#387);
#224=AXIS2_PLACEMENT_3D('',#312,#250,#251);
#225=AXIS2_PLACEMENT_3D('',#313,#252,#253);
#226=AXIS2_PLACEMENT_3D('',#314,#254,#255);
#227=AXIS2_PLACEMENT_3D('',#328,#259,#260);
#228=AXIS2_PLACEMENT_3D('',#329,#261,#262);
#229=AXIS2_PLACEMENT_3D('',#331,#263,#264);
#230=AXIS2_PLACEMENT_3D('',#333,#265,#266);
#231=AXIS2_PLACEMENT_3D('',#334,#267,#268);
#232=AXIS2_PLACEMENT_3D('',#336,#269,#270);
#233=AXIS2_PLACEMENT_3D('',#338,#271,#272);
#234=AXIS2_PLACEMENT_3D('',#339,#273,#274);
#235=AXIS2_PLACEMENT_3D('',#341,#275,#276);
#236=AXIS2_PLACEMENT_3D('',#342,#277,#278);
#237=AXIS2_PLACEMENT_3D('',#344,#279,#280);
#238=AXIS2_PLACEMENT_3D('',#346,#281,#282);
#239=AXIS2_PLACEMENT_3D('',#347,#283,#284);
#240=AXIS2_PLACEMENT_3D('',#349,#285,#286);
#241=AXIS2_PLACEMENT_3D('',#351,#287,#288);
#242=AXIS2_PLACEMENT_3D('',#352,#289,#290);
#243=AXIS2_PLACEMENT_3D('',#375,#295,#296);
#244=AXIS2_PLACEMENT_3D('',#379,#299,#300);
#245=AXIS2_PLACEMENT_3D('',#381,#302,#303);
#246=AXIS2_PLACEMENT_3D('',#382,#304,#305);
#247=AXIS2_PLACEMENT_3D('',#383,#306,#307);
#248=AXIS2_PLACEMENT_3D('',#384,#308,#309);
#249=AXIS2_PLACEMENT_3D('',#385,#310,#311);
#250=DIRECTION('',(0.,0.,1.));
#251=DIRECTION('',(1.,0.,0.));
#252=DIRECTION('',(0.,0.,1.));
#253=DIRECTION('',(1.,0.,0.));
#254=DIRECTION('',(0.,0.,1.));
#255=DIRECTION('',(1.,0.,0.));
#256=DIRECTION('',(0.,1.,0.));
#257=DIRECTION('',(-1.,0.,0.));
#258=DIRECTION('',(0.,1.,0.));
#259=DIRECTION('',(0.,0.,1.));
#260=DIRECTION('',(1.,0.,0.));
#261=DIRECTION('',(0.,0.,1.));
#262=DIRECTION('',(1.,0.,0.));
#263=DIRECTION('',(0.,0.,1.));
#264=DIRECTION('',(1.,0.,0.));
#265=DIRECTION('',(0.,0.,1.));
#266=DIRECTION('',(1.,0.,0.));
#267=DIRECTION('',(0.,0.,1.));
#268=DIRECTION('',(1.,0.,0.));
#269=DIRECTION('',(0.,0.,1.));
#270=DIRECTION('',(1.,0.,0.));
#271=DIRECTION('',(0.,0.,1.));
#272=DIRECTION('',(1.,0.,0.));
#273=DIRECTION('',(0.,0.,1.));
#274=DIRECTION('',(1.,0.,0.));
#275=DIRECTION('',(0.,0.,1.));
#276=DIRECTION('',(1.,0.,0.));
#277=DIRECTION('',(0.,0.,1.));
#278=DIRECTION('',(1.,0.,0.));
#279=DIRECTION('',(0.,0.,1.));
#280=DIRECTION('',(1.,0.,0.));
#281=DIRECTION('',(0.,0.,-1.));
#282=DIRECTION('',(-1.,0.,0.));
#283=DIRECTION('',(0.,0.,1.));
#284=DIRECTION('',(1.,0.,0.));
#285=DIRECTION('',(0.,0.,1.));
#286=DIRECTION('',(1.,0.,0.));
#287=DIRECTION('',(0.,0.,1.));
#288=DIRECTION('',(1.,0.,0.));
#289=DIRECTION('',(1.,0.,0.));
#290=DIRECTION('',(0.,0.,-1.));
#291=DIRECTION('',(0.,0.,1.));
#292=DIRECTION('',(0.,1.,0.));
#293=DIRECTION('',(0.,0.,1.));
#294=DIRECTION('',(0.,0.,1.));
#295=DIRECTION('',(1.,0.,0.));
#296=DIRECTION('',(0.,0.,-1.));
#297=DIRECTION('',(0.,0.,1.));
#298=DIRECTION('',(0.,1.,0.));
#299=DIRECTION('',(0.,1.,0.));
#300=DIRECTION('',(0.,0.,1.));
#301=DIRECTION('',(-1.,0.,0.));
#302=DIRECTION('',(0.,0.,1.));
#303=DIRECTION('',(1.,0.,0.));
#304=DIRECTION('',(0.,0.,1.));
#305=DIRECTION('',(1.,0.,0.));
#306=DIRECTION('',(0.,0.,1.));
#307=DIRECTION('',(1.,0.,0.));
#308=DIRECTION('',(0.,0.,1.));
#309=DIRECTION('',(1.,0.,0.));
#310=DIRECTION('',(0.,0.,1.));
#311=DIRECTION('',(1.,0.,0.));
#312=CARTESIAN_POINT('',(0.,0.,0.));
#313=CARTESIAN_POINT('',(0.,0.,0.022500374991524));
#314=CARTESIAN_POINT('',(0.,6.80237812647742E-19,0.022500374991524));
#315=CARTESIAN_POINT('',(0.006872304473783,6.80237812647742E-19,0.022500374991524));
#316=CARTESIAN_POINT('',(-0.000416764698456973,-0.00426527,0.022500374991524));
#317=CARTESIAN_POINT('',(-0.000264428627908463,-0.0043566992073774,0.022500374991524));
#318=CARTESIAN_POINT('',(-6.37463855928627E-7,-0.00452934795995726,0.022500374991524));
#319=CARTESIAN_POINT('',(0.000228896361038413,-0.00435918163198002,0.022500374991524));
#320=CARTESIAN_POINT('',(0.000347166263964028,-0.00426508,0.022500374991524));
#321=CARTESIAN_POINT('',(-0.000416764698456973,-0.00426527,0.022500374991524));
#322=CARTESIAN_POINT('',(0.000347166263964027,-0.00426508,0.022500374991524));
#323=CARTESIAN_POINT('',(-0.000416764698456973,-0.002132635,0.022500374991524));
#324=CARTESIAN_POINT('',(-0.000416764698456973,0.,0.022500374991524));
#325=CARTESIAN_POINT('',(-3.47992172464728E-5,0.,0.022500374991524));
#326=CARTESIAN_POINT('',(0.000347166263964027,0.,0.022500374991524));
#327=CARTESIAN_POINT('',(0.000347166263964027,-0.00213254,0.022500374991524));
#328=CARTESIAN_POINT('',(0.,1.83704673914598E-19,0.014800374991524));
#329=CARTESIAN_POINT('',(0.,1.83704673914598E-19,0.014800374991524));
#330=CARTESIAN_POINT('',(0.003000125,1.83704673914598E-19,0.014800374991524));
#331=CARTESIAN_POINT('',(0.,1.83704673914598E-19,0.021500374991524));
#332=CARTESIAN_POINT('',(0.003000125,1.83704673914598E-19,0.021500374991524));
#333=CARTESIAN_POINT('',(0.,2.44937013871966E-19,0.014800374991524));
#334=CARTESIAN_POINT('',(0.,2.44937013871966E-19,0.015150374991524));
#335=CARTESIAN_POINT('',(0.004000125,2.44937013871966E-19,0.015150374991524));
#336=CARTESIAN_POINT('',(0.,2.44937013871966E-19,0.020750374991524));
#337=CARTESIAN_POINT('',(0.004000125,2.44937013871966E-19,0.020750374991524));
#338=CARTESIAN_POINT('',(0.,0.,0.014800374991524));
#339=CARTESIAN_POINT('',(0.,2.44937013871966E-19,0.014800374991524));
#340=CARTESIAN_POINT('',(0.003650125,2.44937013871966E-19,0.014800374991524));
#341=CARTESIAN_POINT('',(0.,0.,0.021500374991524));
#342=CARTESIAN_POINT('',(0.,6.80237812647742E-19,0.021500374991524));
#343=CARTESIAN_POINT('',(0.00713786796564404,6.80237812647742E-19,0.021500374991524));
#344=CARTESIAN_POINT('',(0.,2.44937013871966E-19,0.021500374991524));
#345=CARTESIAN_POINT('',(0.004750125,2.44937013871966E-19,0.021500374991524));
#346=CARTESIAN_POINT('',(0.,6.80237812647742E-19,0.022500374991524));
#347=CARTESIAN_POINT('',(0.,6.80237812647742E-19,0.02186250702588));
#348=CARTESIAN_POINT('',(0.0075,6.80237812647742E-19,0.02186250702588));
#349=CARTESIAN_POINT('',(0.,6.80237812647742E-19,0.021872679465307));
#350=CARTESIAN_POINT('',(0.0075,6.80237812647742E-19,0.021872679465307));
#351=CARTESIAN_POINT('',(0.,0.,0.021500374991524));
#352=CARTESIAN_POINT('',(-0.000416764698456973,-0.002132635,0.022250374991524));
#353=CARTESIAN_POINT('',(-0.000416764698456973,-0.00426527,0.022250374991524));
#354=CARTESIAN_POINT('',(-0.000416764698456973,-0.00426527,0.022250374991524));
#355=CARTESIAN_POINT('',(-0.000416764698456973,-0.002132635,0.022250374991524));
#356=CARTESIAN_POINT('',(-0.000416764698456973,0.,0.022250374991524));
#357=CARTESIAN_POINT('',(-0.000416764698456973,0.,0.022250374991524));
#358=CARTESIAN_POINT('',(-0.000416764698456973,-0.00426527,0.022250374991524));
#359=CARTESIAN_POINT('',(-0.000416764698456973,-0.00426527,0.022500374991524));
#360=CARTESIAN_POINT('',(-0.000269914038414021,-0.00435340696849492,0.022250374991524));
#361=CARTESIAN_POINT('',(-0.000269914038414021,-0.00435340696849492,0.022500374991524));
#362=CARTESIAN_POINT('',(-4.83837498541336E-6,-0.00452889126993129,0.022250374991524));
#363=CARTESIAN_POINT('',(-4.83837498541336E-6,-0.00452889126993129,0.022500374991524));
#364=CARTESIAN_POINT('',(0.000224307121673558,-0.00436283306740947,0.022250374991524));
#365=CARTESIAN_POINT('',(0.000224307121673558,-0.00436283306740947,0.022500374991524));
#366=CARTESIAN_POINT('',(0.000347166263964028,-0.00426508,0.022250374991524));
#367=CARTESIAN_POINT('',(0.000347166263964028,-0.00426508,0.022500374991524));
#368=CARTESIAN_POINT('',(0.000347166263964027,-0.00426508,0.022250374991524));
#369=CARTESIAN_POINT('',(0.000347166263964027,-0.00426508,0.022250374991524));
#370=CARTESIAN_POINT('',(-0.000416764698456973,-0.00426527,0.022250374991524));
#371=CARTESIAN_POINT('',(-0.000264428627908463,-0.0043566992073774,0.022250374991524));
#372=CARTESIAN_POINT('',(-6.37463855928627E-7,-0.00452934795995726,0.022250374991524));
#373=CARTESIAN_POINT('',(0.000228896361038413,-0.00435918163198002,0.022250374991524));
#374=CARTESIAN_POINT('',(0.000347166263964028,-0.00426508,0.022250374991524));
#375=CARTESIAN_POINT('',(0.000347166263964027,-0.00213254,0.022250374991524));
#376=CARTESIAN_POINT('',(0.000347166263964027,0.,0.022250374991524));
#377=CARTESIAN_POINT('',(0.000347166263964027,0.,0.022250374991524));
#378=CARTESIAN_POINT('',(0.000347166263964027,-0.00213254,0.022250374991524));
#379=CARTESIAN_POINT('',(-3.47992172464728E-5,0.,0.022250374991524));
#380=CARTESIAN_POINT('',(-3.47992172464728E-5,0.,0.022250374991524));
#381=CARTESIAN_POINT('',(0.,0.,0.022250374991524));
#382=CARTESIAN_POINT('',(0.,2.44937013871966E-19,0.021500374991524));
#383=CARTESIAN_POINT('',(0.,6.80237812647742E-19,0.021872679465307));
#384=CARTESIAN_POINT('',(0.,6.80237812647742E-19,0.02186250702588));
#385=CARTESIAN_POINT('',(0.,2.44937013871966E-19,0.015150374991524));
#386=MECHANICAL_DESIGN_GEOMETRIC_PRESENTATION_REPRESENTATION('',(#213),
#387);
#387=(
GEOMETRIC_REPRESENTATION_CONTEXT(3)
GLOBAL_UNCERTAINTY_ASSIGNED_CONTEXT((#388))
GLOBAL_UNIT_ASSIGNED_CONTEXT((#391,#390,#389))
REPRESENTATION_CONTEXT('EncoderCap','TOP_LEVEL_ASSEMBLY_PART')
);
#388=UNCERTAINTY_MEASURE_WITH_UNIT(LENGTH_MEASURE(2.E-5),#391,
'DISTANCE_ACCURACY_VALUE','Maximum Tolerance applied to model');
#389=(
NAMED_UNIT(*)
SI_UNIT($,.STERADIAN.)
SOLID_ANGLE_UNIT()
);
#390=(
NAMED_UNIT(*)
PLANE_ANGLE_UNIT()
SI_UNIT($,.RADIAN.)
);
#391=(
LENGTH_UNIT()
NAMED_UNIT(*)
SI_UNIT($,.METRE.)
);
#392=PRODUCT_DEFINITION_SHAPE('','',#393);
#393=PRODUCT_DEFINITION('','',#395,#394);
#394=PRODUCT_DEFINITION_CONTEXT('',#401,'design');
#395=PRODUCT_DEFINITION_FORMATION_WITH_SPECIFIED_SOURCE('','',#397,
 .NOT_KNOWN.);
#396=PRODUCT_RELATED_PRODUCT_CATEGORY('','',(#397));
#397=PRODUCT('EncoderCap','EncoderCap','EncoderCap',(#399));
#398=PRODUCT_CATEGORY('','');
#399=PRODUCT_CONTEXT('',#401,'mechanical');
#400=APPLICATION_PROTOCOL_DEFINITION('international standard',
'ap242_managed_model_based_3d_engineering',2020,#401);
#401=APPLICATION_CONTEXT('managed model based 3d engineering');
ENDSEC;
END-ISO-10303-21;
