<svg xmlns="http://www.w3.org/2000/svg" width="500" height="500" viewBox="0 0 500 500"><rect width="500" height="500" fill="#000000"/><rect x="0" y="0" width="500" height="500" stroke="#000000" stroke-width="12" fill="none"/><g transform="translate(0,0)"><path d="M44.44,44.44 V55.56 H55.56 V44.44 H44.44 Z M55.56,44.44 V55.56 H66.67 V44.44 H55.56 Z M66.67,44.44 V55.56 H77.78 V44.44 H66.67 Z M77.78,44.44 V55.56 H88.89 V44.44 H77.78 Z M88.89,44.44 V55.56 H100 V44.44 H88.89 Z M100,44.44 V55.56 H111.11 V44.44 H100 Z M111.11,44.44 V55.56 H122.22 V44.44 H111.11 Z M166.67,44.44 V55.56 H177.78 V44.44 H166.67 Z M211.11,44.44 V55.56 H222.22 V44.44 H211.11 Z M233.33,44.44 V55.56 H244.44 V44.44 H233.33 Z M244.44,44.44 V55.56 H255.56 V44.44 H244.44 Z M344.44,44.44 V55.56 H355.56 V44.44 H344.44 Z M377.78,44.44 V55.56 H388.89 V44.44 H377.78 Z M388.89,44.44 V55.56 H400 V44.44 H388.89 Z M400,44.44 V55.56 H411.11 V44.44 H400 Z M411.11,44.44 V55.56 H422.22 V44.44 H411.11 Z M422.22,44.44 V55.56 H433.33 V44.44 H422.22 Z M433.33,44.44 V55.56 H444.44 V44.44 H433.33 Z M444.44,44.44 V55.56 H455.56 V44.44 H444.44 Z M44.44,55.56 V66.67 H55.56 V55.56 H44.44 Z M111.11,55.56 V66.67 H122.22 V55.56 H111.11 Z M155.56,55.56 V66.67 H166.67 V55.56 H155.56 Z M166.67,55.56 V66.67 H177.78 V55.56 H166.67 Z M177.78,55.56 V66.67 H188.89 V55.56 H177.78 Z M188.89,55.56 V66.67 H200.00 V55.56 H188.89 Z M266.67,55.56 V66.67 H277.78 V55.56 H266.67 Z M277.78,55.56 V66.67 H288.89 V55.56 H277.78 Z M300,55.56 V66.67 H311.11 V55.56 H300 Z M311.11,55.56 V66.67 H322.22 V55.56 H311.11 Z M322.22,55.56 V66.67 H333.33 V55.56 H322.22 Z M333.33,55.56 V66.67 H344.44 V55.56 H333.33 Z M377.78,55.56 V66.67 H388.89 V55.56 H377.78 Z M444.44,55.56 V66.67 H455.56 V55.56 H444.44 Z M44.44,66.67 V77.78 H55.56 V66.67 H44.44 Z M66.67,66.67 V77.78 H77.78 V66.67 H66.67 Z M77.78,66.67 V77.78 H88.89 V66.67 H77.78 Z M88.89,66.67 V77.78 H100 V66.67 H88.89 Z M111.11,66.67 V77.78 H122.22 V66.67 H111.11 Z M133.33,66.67 V77.78 H144.44 V66.67 H133.33 Z M144.44,66.67 V77.78 H155.56 V66.67 H144.44 Z M166.67,66.67 V77.78 H177.78 V66.67 H166.67 Z M177.78,66.67 V77.78 H188.89 V66.67 H177.78 Z M200,66.67 V77.78 H211.11 V66.67 H200 Z M211.11,66.67 V77.78 H222.22 V66.67 H211.11 Z M222.22,66.67 V77.78 H233.33 V66.67 H222.22 Z M233.33,66.67 V77.78 H244.44 V66.67 H233.33 Z M288.89,66.67 V77.78 H300.00 V66.67 H288.89 Z M300,66.67 V77.78 H311.11 V66.67 H300 Z M377.78,66.67 V77.78 H388.89 V66.67 H377.78 Z M400,66.67 V77.78 H411.11 V66.67 H400 Z M411.11,66.67 V77.78 H422.22 V66.67 H411.11 Z M422.22,66.67 V77.78 H433.33 V66.67 H422.22 Z M444.44,66.67 V77.78 H455.56 V66.67 H444.44 Z M44.44,77.78 V88.89 H55.56 V77.78 H44.44 Z M66.67,77.78 V88.89 H77.78 V77.78 H66.67 Z M77.78,77.78 V88.89 H88.89 V77.78 H77.78 Z M88.89,77.78 V88.89 H100 V77.78 H88.89 Z M111.11,77.78 V88.89 H122.22 V77.78 H111.11 Z M133.33,77.78 V88.89 H144.44 V77.78 H133.33 Z M144.44,77.78 V88.89 H155.56 V77.78 H144.44 Z M177.78,77.78 V88.89 H188.89 V77.78 H177.78 Z M188.89,77.78 V88.89 H200.00 V77.78 H188.89 Z M222.22,77.78 V88.89 H233.33 V77.78 H222.22 Z M233.33,77.78 V88.89 H244.44 V77.78 H233.33 Z M244.44,77.78 V88.89 H255.56 V77.78 H244.44 Z M288.89,77.78 V88.89 H300.00 V77.78 H288.89 Z M300,77.78 V88.89 H311.11 V77.78 H300 Z M311.11,77.78 V88.89 H322.22 V77.78 H311.11 Z M322.22,77.78 V88.89 H333.33 V77.78 H322.22 Z M355.56,77.78 V88.89 H366.67 V77.78 H355.56 Z M377.78,77.78 V88.89 H388.89 V77.78 H377.78 Z M400,77.78 V88.89 H411.11 V77.78 H400 Z M411.11,77.78 V88.89 H422.22 V77.78 H411.11 Z M422.22,77.78 V88.89 H433.33 V77.78 H422.22 Z M444.44,77.78 V88.89 H455.56 V77.78 H444.44 Z M44.44,88.89 V100 H55.56 V88.89 H44.44 Z M66.67,88.89 V100 H77.78 V88.89 H66.67 Z M77.78,88.89 V100 H88.89 V88.89 H77.78 Z M88.89,88.89 V100 H100 V88.89 H88.89 Z M111.11,88.89 V100 H122.22 V88.89 H111.11 Z M144.44,88.89 V100 H155.56 V88.89 H144.44 Z M155.56,88.89 V100 H166.67 V88.89 H155.56 Z M188.89,88.89 V100 H200.00 V88.89 H188.89 Z M222.22,88.89 V100 H233.33 V88.89 H222.22 Z M300,88.89 V100 H311.11 V88.89 H300 Z M311.11,88.89 V100 H322.22 V88.89 H311.11 Z M333.33,88.89 V100 H344.44 V88.89 H333.33 Z M377.78,88.89 V100 H388.89 V88.89 H377.78 Z M400,88.89 V100 H411.11 V88.89 H400 Z M411.11,88.89 V100 H422.22 V88.89 H411.11 Z M422.22,88.89 V100 H433.33 V88.89 H422.22 Z M444.44,88.89 V100 H455.56 V88.89 H444.44 Z M44.44,100 V111.11 H55.56 V100 H44.44 Z M111.11,100 V111.11 H122.22 V100 H111.11 Z M144.44,100 V111.11 H155.56 V100 H144.44 Z M177.78,100 V111.11 H188.89 V100 H177.78 Z M188.89,100 V111.11 H200.00 V100 H188.89 Z M200,100 V111.11 H211.11 V100 H200 Z M211.11,100 V111.11 H222.22 V100 H211.11 Z M222.22,100 V111.11 H233.33 V100 H222.22 Z M255.56,100 V111.11 H266.67 V100 H255.56 Z M266.67,100 V111.11 H277.78 V100 H266.67 Z M300,100 V111.11 H311.11 V100 H300 Z M322.22,100 V111.11 H333.33 V100 H322.22 Z M333.33,100 V111.11 H344.44 V100 H333.33 Z M355.56,100 V111.11 H366.67 V100 H355.56 Z M377.78,100 V111.11 H388.89 V100 H377.78 Z M444.44,100 V111.11 H455.56 V100 H444.44 Z M44.44,111.11 V122.22 H55.56 V111.11 H44.44 Z M55.56,111.11 V122.22 H66.67 V111.11 H55.56 Z M66.67,111.11 V122.22 H77.78 V111.11 H66.67 Z M77.78,111.11 V122.22 H88.89 V111.11 H77.78 Z M88.89,111.11 V122.22 H100 V111.11 H88.89 Z M100,111.11 V122.22 H111.11 V111.11 H100 Z M111.11,111.11 V122.22 H122.22 V111.11 H111.11 Z M133.33,111.11 V122.22 H144.44 V111.11 H133.33 Z M155.56,111.11 V122.22 H166.67 V111.11 H155.56 Z M177.78,111.11 V122.22 H188.89 V111.11 H177.78 Z M200,111.11 V122.22 H211.11 V111.11 H200 Z M222.22,111.11 V122.22 H233.33 V111.11 H222.22 Z M244.44,111.11 V122.22 H255.56 V111.11 H244.44 Z M266.67,111.11 V122.22 H277.78 V111.11 H266.67 Z M288.89,111.11 V122.22 H300.00 V111.11 H288.89 Z M311.11,111.11 V122.22 H322.22 V111.11 H311.11 Z M333.33,111.11 V122.22 H344.44 V111.11 H333.33 Z M355.56,111.11 V122.22 H366.67 V111.11 H355.56 Z M377.78,111.11 V122.22 H388.89 V111.11 H377.78 Z M388.89,111.11 V122.22 H400 V111.11 H388.89 Z M400,111.11 V122.22 H411.11 V111.11 H400 Z M411.11,111.11 V122.22 H422.22 V111.11 H411.11 Z M422.22,111.11 V122.22 H433.33 V111.11 H422.22 Z M433.33,111.11 V122.22 H444.44 V111.11 H433.33 Z M444.44,111.11 V122.22 H455.56 V111.11 H444.44 Z M133.33,122.22 V133.33 H144.44 V122.22 H133.33 Z M177.78,122.22 V133.33 H188.89 V122.22 H177.78 Z M266.67,122.22 V133.33 H277.78 V122.22 H266.67 Z M288.89,122.22 V133.33 H300.00 V122.22 H288.89 Z M333.33,122.22 V133.33 H344.44 V122.22 H333.33 Z M355.56,122.22 V133.33 H366.67 V122.22 H355.56 Z M88.89,133.33 V144.44 H100 V133.33 H88.89 Z M111.11,133.33 V144.44 H122.22 V133.33 H111.11 Z M122.22,133.33 V144.44 H133.33 V133.33 H122.22 Z M133.33,133.33 V144.44 H144.44 V133.33 H133.33 Z M155.56,133.33 V144.44 H166.67 V133.33 H155.56 Z M166.67,133.33 V144.44 H177.78 V133.33 H166.67 Z M188.89,133.33 V144.44 H200.00 V133.33 H188.89 Z M200,133.33 V144.44 H211.11 V133.33 H200 Z M222.22,133.33 V144.44 H233.33 V133.33 H222.22 Z M233.33,133.33 V144.44 H244.44 V133.33 H233.33 Z M277.78,133.33 V144.44 H288.89 V133.33 H277.78 Z M288.89,133.33 V144.44 H300.00 V133.33 H288.89 Z M311.11,133.33 V144.44 H322.22 V133.33 H311.11 Z M333.33,133.33 V144.44 H344.44 V133.33 H333.33 Z M344.44,133.33 V144.44 H355.56 V133.33 H344.44 Z M366.67,133.33 V144.44 H377.78 V133.33 H366.67 Z M377.78,133.33 V144.44 H388.89 V133.33 H377.78 Z M411.11,133.33 V144.44 H422.22 V133.33 H411.11 Z M422.22,133.33 V144.44 H433.33 V133.33 H422.22 Z M44.44,144.44 V155.56 H55.56 V144.44 H44.44 Z M55.56,144.44 V155.56 H66.67 V144.44 H55.56 Z M66.67,144.44 V155.56 H77.78 V144.44 H66.67 Z M88.89,144.44 V155.56 H100 V144.44 H88.89 Z M100,144.44 V155.56 H111.11 V144.44 H100 Z M133.33,144.44 V155.56 H144.44 V144.44 H133.33 Z M144.44,144.44 V155.56 H155.56 V144.44 H144.44 Z M166.67,144.44 V155.56 H177.78 V144.44 H166.67 Z M200,144.44 V155.56 H211.11 V144.44 H200 Z M266.67,144.44 V155.56 H277.78 V144.44 H266.67 Z M277.78,144.44 V155.56 H288.89 V144.44 H277.78 Z M288.89,144.44 V155.56 H300.00 V144.44 H288.89 Z M300,144.44 V155.56 H311.11 V144.44 H300 Z M311.11,144.44 V155.56 H322.22 V144.44 H311.11 Z M322.22,144.44 V155.56 H333.33 V144.44 H322.22 Z M366.67,144.44 V155.56 H377.78 V144.44 H366.67 Z M388.89,144.44 V155.56 H400 V144.44 H388.89 Z M400,144.44 V155.56 H411.11 V144.44 H400 Z M100,155.56 V166.67 H111.11 V155.56 H100 Z M111.11,155.56 V166.67 H122.22 V155.56 H111.11 Z M122.22,155.56 V166.67 H133.33 V155.56 H122.22 Z M144.44,155.56 V166.67 H155.56 V155.56 H144.44 Z M155.56,155.56 V166.67 H166.67 V155.56 H155.56 Z M166.67,155.56 V166.67 H177.78 V155.56 H166.67 Z M177.78,155.56 V166.67 H188.89 V155.56 H177.78 Z M211.11,155.56 V166.67 H222.22 V155.56 H211.11 Z M222.22,155.56 V166.67 H233.33 V155.56 H222.22 Z M244.44,155.56 V166.67 H255.56 V155.56 H244.44 Z M266.67,155.56 V166.67 H277.78 V155.56 H266.67 Z M277.78,155.56 V166.67 H288.89 V155.56 H277.78 Z M288.89,155.56 V166.67 H300.00 V155.56 H288.89 Z M322.22,155.56 V166.67 H333.33 V155.56 H322.22 Z M388.89,155.56 V166.67 H400 V155.56 H388.89 Z M400,155.56 V166.67 H411.11 V155.56 H400 Z M422.22,155.56 V166.67 H433.33 V155.56 H422.22 Z M433.33,155.56 V166.67 H444.44 V155.56 H433.33 Z M444.44,155.56 V166.67 H455.56 V155.56 H444.44 Z M44.44,166.67 V177.78 H55.56 V166.67 H44.44 Z M77.78,166.67 V177.78 H88.89 V166.67 H77.78 Z M122.22,166.67 V177.78 H133.33 V166.67 H122.22 Z M133.33,166.67 V177.78 H144.44 V166.67 H133.33 Z M144.44,166.67 V177.78 H155.56 V166.67 H144.44 Z M177.78,166.67 V177.78 H188.89 V166.67 H177.78 Z M200,166.67 V177.78 H211.11 V166.67 H200 Z M211.11,166.67 V177.78 H222.22 V166.67 H211.11 Z M222.22,166.67 V177.78 H233.33 V166.67 H222.22 Z M233.33,166.67 V177.78 H244.44 V166.67 H233.33 Z M244.44,166.67 V177.78 H255.56 V166.67 H244.44 Z M255.56,166.67 V177.78 H266.67 V166.67 H255.56 Z M277.78,166.67 V177.78 H288.89 V166.67 H277.78 Z M333.33,166.67 V177.78 H344.44 V166.67 H333.33 Z M366.67,166.67 V177.78 H377.78 V166.67 H366.67 Z M400,166.67 V177.78 H411.11 V166.67 H400 Z M411.11,166.67 V177.78 H422.22 V166.67 H411.11 Z M433.33,166.67 V177.78 H444.44 V166.67 H433.33 Z M444.44,166.67 V177.78 H455.56 V166.67 H444.44 Z M44.44,177.78 V188.89 H55.56 V177.78 H44.44 Z M55.56,177.78 V188.89 H66.67 V177.78 H55.56 Z M66.67,177.78 V188.89 H77.78 V177.78 H66.67 Z M77.78,177.78 V188.89 H88.89 V177.78 H77.78 Z M88.89,177.78 V188.89 H100 V177.78 H88.89 Z M100,177.78 V188.89 H111.11 V177.78 H100 Z M111.11,177.78 V188.89 H122.22 V177.78 H111.11 Z M122.22,177.78 V188.89 H133.33 V177.78 H122.22 Z M144.44,177.78 V188.89 H155.56 V177.78 H144.44 Z M177.78,177.78 V188.89 H188.89 V177.78 H177.78 Z M188.89,177.78 V188.89 H200.00 V177.78 H188.89 Z M200,177.78 V188.89 H211.11 V177.78 H200 Z M211.11,177.78 V188.89 H222.22 V177.78 H211.11 Z M233.33,177.78 V188.89 H244.44 V177.78 H233.33 Z M266.67,177.78 V188.89 H277.78 V177.78 H266.67 Z M300,177.78 V188.89 H311.11 V177.78 H300 Z M311.11,177.78 V188.89 H322.22 V177.78 H311.11 Z M322.22,177.78 V188.89 H333.33 V177.78 H322.22 Z M377.78,177.78 V188.89 H388.89 V177.78 H377.78 Z M400,177.78 V188.89 H411.11 V177.78 H400 Z M44.44,188.89 V200.00 H55.56 V188.89 H44.44 Z M77.78,188.89 V200.00 H88.89 V188.89 H77.78 Z M88.89,188.89 V200.00 H100 V188.89 H88.89 Z M100,188.89 V200.00 H111.11 V188.89 H100 Z M122.22,188.89 V200.00 H133.33 V188.89 H122.22 Z M133.33,188.89 V200.00 H144.44 V188.89 H133.33 Z M177.78,188.89 V200.00 H188.89 V188.89 H177.78 Z M222.22,188.89 V200.00 H233.33 V188.89 H222.22 Z M244.44,188.89 V200.00 H255.56 V188.89 H244.44 Z M266.67,188.89 V200.00 H277.78 V188.89 H266.67 Z M277.78,188.89 V200.00 H288.89 V188.89 H277.78 Z M288.89,188.89 V200.00 H300.00 V188.89 H288.89 Z M322.22,188.89 V200.00 H333.33 V188.89 H322.22 Z M333.33,188.89 V200.00 H344.44 V188.89 H333.33 Z M377.78,188.89 V200.00 H388.89 V188.89 H377.78 Z M400,188.89 V200.00 H411.11 V188.89 H400 Z M411.11,188.89 V200.00 H422.22 V188.89 H411.11 Z M422.22,188.89 V200.00 H433.33 V188.89 H422.22 Z M44.44,200 V211.11 H55.56 V200 H44.44 Z M111.11,200 V211.11 H122.22 V200 H111.11 Z M133.33,200 V211.11 H144.44 V200 H133.33 Z M233.33,200 V211.11 H244.44 V200 H233.33 Z M255.56,200 V211.11 H266.67 V200 H255.56 Z M266.67,200 V211.11 H277.78 V200 H266.67 Z M277.78,200 V211.11 H288.89 V200 H277.78 Z M300,200 V211.11 H311.11 V200 H300 Z M322.22,200 V211.11 H333.33 V200 H322.22 Z M333.33,200 V211.11 H344.44 V200 H333.33 Z M366.67,200 V211.11 H377.78 V200 H366.67 Z M377.78,200 V211.11 H388.89 V200 H377.78 Z M388.89,200 V211.11 H400 V200 H388.89 Z M411.11,200 V211.11 H422.22 V200 H411.11 Z M433.33,200 V211.11 H444.44 V200 H433.33 Z M444.44,200 V211.11 H455.56 V200 H444.44 Z M55.56,211.11 V222.22 H66.67 V211.11 H55.56 Z M100,211.11 V222.22 H111.11 V211.11 H100 Z M133.33,211.11 V222.22 H144.44 V211.11 H133.33 Z M155.56,211.11 V222.22 H166.67 V211.11 H155.56 Z M177.78,211.11 V222.22 H188.89 V211.11 H177.78 Z M200,211.11 V222.22 H211.11 V211.11 H200 Z M222.22,211.11 V222.22 H233.33 V211.11 H222.22 Z M244.44,211.11 V222.22 H255.56 V211.11 H244.44 Z M255.56,211.11 V222.22 H266.67 V211.11 H255.56 Z M266.67,211.11 V222.22 H277.78 V211.11 H266.67 Z M300,211.11 V222.22 H311.11 V211.11 H300 Z M322.22,211.11 V222.22 H333.33 V211.11 H322.22 Z M333.33,211.11 V222.22 H344.44 V211.11 H333.33 Z M366.67,211.11 V222.22 H377.78 V211.11 H366.67 Z M377.78,211.11 V222.22 H388.89 V211.11 H377.78 Z M411.11,211.11 V222.22 H422.22 V211.11 H411.11 Z M433.33,211.11 V222.22 H444.44 V211.11 H433.33 Z M55.56,222.22 V233.33 H66.67 V222.22 H55.56 Z M88.89,222.22 V233.33 H100 V222.22 H88.89 Z M111.11,222.22 V233.33 H122.22 V222.22 H111.11 Z M122.22,222.22 V233.33 H133.33 V222.22 H122.22 Z M133.33,222.22 V233.33 H144.44 V222.22 H133.33 Z M155.56,222.22 V233.33 H166.67 V222.22 H155.56 Z M166.67,222.22 V233.33 H177.78 V222.22 H166.67 Z M177.78,222.22 V233.33 H188.89 V222.22 H177.78 Z M200,222.22 V233.33 H211.11 V222.22 H200 Z M233.33,222.22 V233.33 H244.44 V222.22 H233.33 Z M266.67,222.22 V233.33 H277.78 V222.22 H266.67 Z M288.89,222.22 V233.33 H300.00 V222.22 H288.89 Z M311.11,222.22 V233.33 H322.22 V222.22 H311.11 Z M355.56,222.22 V233.33 H366.67 V222.22 H355.56 Z M377.78,222.22 V233.33 H388.89 V222.22 H377.78 Z M388.89,222.22 V233.33 H400 V222.22 H388.89 Z M433.33,222.22 V233.33 H444.44 V222.22 H433.33 Z M44.44,233.33 V244.44 H55.56 V233.33 H44.44 Z M55.56,233.33 V244.44 H66.67 V233.33 H55.56 Z M66.67,233.33 V244.44 H77.78 V233.33 H66.67 Z M100,233.33 V244.44 H111.11 V233.33 H100 Z M122.22,233.33 V244.44 H133.33 V233.33 H122.22 Z M155.56,233.33 V244.44 H166.67 V233.33 H155.56 Z M166.67,233.33 V244.44 H177.78 V233.33 H166.67 Z M177.78,233.33 V244.44 H188.89 V233.33 H177.78 Z M233.33,233.33 V244.44 H244.44 V233.33 H233.33 Z M255.56,233.33 V244.44 H266.67 V233.33 H255.56 Z M266.67,233.33 V244.44 H277.78 V233.33 H266.67 Z M322.22,233.33 V244.44 H333.33 V233.33 H322.22 Z M344.44,233.33 V244.44 H355.56 V233.33 H344.44 Z M355.56,233.33 V244.44 H366.67 V233.33 H355.56 Z M388.89,233.33 V244.44 H400 V233.33 H388.89 Z M422.22,233.33 V244.44 H433.33 V233.33 H422.22 Z M433.33,233.33 V244.44 H444.44 V233.33 H433.33 Z M44.44,244.44 V255.56 H55.56 V244.44 H44.44 Z M55.56,244.44 V255.56 H66.67 V244.44 H55.56 Z M66.67,244.44 V255.56 H77.78 V244.44 H66.67 Z M77.78,244.44 V255.56 H88.89 V244.44 H77.78 Z M88.89,244.44 V255.56 H100 V244.44 H88.89 Z M100,244.44 V255.56 H111.11 V244.44 H100 Z M111.11,244.44 V255.56 H122.22 V244.44 H111.11 Z M122.22,244.44 V255.56 H133.33 V244.44 H122.22 Z M133.33,244.44 V255.56 H144.44 V244.44 H133.33 Z M144.44,244.44 V255.56 H155.56 V244.44 H144.44 Z M155.56,244.44 V255.56 H166.67 V244.44 H155.56 Z M166.67,244.44 V255.56 H177.78 V244.44 H166.67 Z M177.78,244.44 V255.56 H188.89 V244.44 H177.78 Z M200,244.44 V255.56 H211.11 V244.44 H200 Z M222.22,244.44 V255.56 H233.33 V244.44 H222.22 Z M255.56,244.44 V255.56 H266.67 V244.44 H255.56 Z M288.89,244.44 V255.56 H300.00 V244.44 H288.89 Z M300,244.44 V255.56 H311.11 V244.44 H300 Z M311.11,244.44 V255.56 H322.22 V244.44 H311.11 Z M333.33,244.44 V255.56 H344.44 V244.44 H333.33 Z M355.56,244.44 V255.56 H366.67 V244.44 H355.56 Z M377.78,244.44 V255.56 H388.89 V244.44 H377.78 Z M388.89,244.44 V255.56 H400 V244.44 H388.89 Z M400,244.44 V255.56 H411.11 V244.44 H400 Z M433.33,244.44 V255.56 H444.44 V244.44 H433.33 Z M444.44,244.44 V255.56 H455.56 V244.44 H444.44 Z M44.44,255.56 V266.67 H55.56 V255.56 H44.44 Z M66.67,255.56 V266.67 H77.78 V255.56 H66.67 Z M100,255.56 V266.67 H111.11 V255.56 H100 Z M122.22,255.56 V266.67 H133.33 V255.56 H122.22 Z M144.44,255.56 V266.67 H155.56 V255.56 H144.44 Z M166.67,255.56 V266.67 H177.78 V255.56 H166.67 Z M200,255.56 V266.67 H211.11 V255.56 H200 Z M211.11,255.56 V266.67 H222.22 V255.56 H211.11 Z M277.78,255.56 V266.67 H288.89 V255.56 H277.78 Z M288.89,255.56 V266.67 H300.00 V255.56 H288.89 Z M333.33,255.56 V266.67 H344.44 V255.56 H333.33 Z M377.78,255.56 V266.67 H388.89 V255.56 H377.78 Z M400,255.56 V266.67 H411.11 V255.56 H400 Z M422.22,255.56 V266.67 H433.33 V255.56 H422.22 Z M66.67,266.67 V277.78 H77.78 V266.67 H66.67 Z M77.78,266.67 V277.78 H88.89 V266.67 H77.78 Z M100,266.67 V277.78 H111.11 V266.67 H100 Z M111.11,266.67 V277.78 H122.22 V266.67 H111.11 Z M122.22,266.67 V277.78 H133.33 V266.67 H122.22 Z M133.33,266.67 V277.78 H144.44 V266.67 H133.33 Z M144.44,266.67 V277.78 H155.56 V266.67 H144.44 Z M155.56,266.67 V277.78 H166.67 V266.67 H155.56 Z M177.78,266.67 V277.78 H188.89 V266.67 H177.78 Z M211.11,266.67 V277.78 H222.22 V266.67 H211.11 Z M244.44,266.67 V277.78 H255.56 V266.67 H244.44 Z M255.56,266.67 V277.78 H266.67 V266.67 H255.56 Z M277.78,266.67 V277.78 H288.89 V266.67 H277.78 Z M322.22,266.67 V277.78 H333.33 V266.67 H322.22 Z M333.33,266.67 V277.78 H344.44 V266.67 H333.33 Z M444.44,266.67 V277.78 H455.56 V266.67 H444.44 Z M44.44,277.78 V288.89 H55.56 V277.78 H44.44 Z M55.56,277.78 V288.89 H66.67 V277.78 H55.56 Z M77.78,277.78 V288.89 H88.89 V277.78 H77.78 Z M100,277.78 V288.89 H111.11 V277.78 H100 Z M133.33,277.78 V288.89 H144.44 V277.78 H133.33 Z M144.44,277.78 V288.89 H155.56 V277.78 H144.44 Z M166.67,277.78 V288.89 H177.78 V277.78 H166.67 Z M177.78,277.78 V288.89 H188.89 V277.78 H177.78 Z M200,277.78 V288.89 H211.11 V277.78 H200 Z M222.22,277.78 V288.89 H233.33 V277.78 H222.22 Z M288.89,277.78 V288.89 H300.00 V277.78 H288.89 Z M322.22,277.78 V288.89 H333.33 V277.78 H322.22 Z M333.33,277.78 V288.89 H344.44 V277.78 H333.33 Z M344.44,277.78 V288.89 H355.56 V277.78 H344.44 Z M355.56,277.78 V288.89 H366.67 V277.78 H355.56 Z M388.89,277.78 V288.89 H400 V277.78 H388.89 Z M66.67,288.89 V300.00 H77.78 V288.89 H66.67 Z M88.89,288.89 V300.00 H100 V288.89 H88.89 Z M111.11,288.89 V300.00 H122.22 V288.89 H111.11 Z M144.44,288.89 V300.00 H155.56 V288.89 H144.44 Z M155.56,288.89 V300.00 H166.67 V288.89 H155.56 Z M200,288.89 V300.00 H211.11 V288.89 H200 Z M211.11,288.89 V300.00 H222.22 V288.89 H211.11 Z M255.56,288.89 V300.00 H266.67 V288.89 H255.56 Z M288.89,288.89 V300.00 H300.00 V288.89 H288.89 Z M300,288.89 V300.00 H311.11 V288.89 H300 Z M322.22,288.89 V300.00 H333.33 V288.89 H322.22 Z M344.44,288.89 V300.00 H355.56 V288.89 H344.44 Z M388.89,288.89 V300.00 H400 V288.89 H388.89 Z M400,288.89 V300.00 H411.11 V288.89 H400 Z M411.11,288.89 V300.00 H422.22 V288.89 H411.11 Z M444.44,288.89 V300.00 H455.56 V288.89 H444.44 Z M44.44,300 V311.11 H55.56 V300 H44.44 Z M100,300 V311.11 H111.11 V300 H100 Z M144.44,300 V311.11 H155.56 V300 H144.44 Z M177.78,300 V311.11 H188.89 V300 H177.78 Z M211.11,300 V311.11 H222.22 V300 H211.11 Z M233.33,300 V311.11 H244.44 V300 H233.33 Z M244.44,300 V311.11 H255.56 V300 H244.44 Z M255.56,300 V311.11 H266.67 V300 H255.56 Z M322.22,300 V311.11 H333.33 V300 H322.22 Z M355.56,300 V311.11 H366.67 V300 H355.56 Z M366.67,300 V311.11 H377.78 V300 H366.67 Z M433.33,300 V311.11 H444.44 V300 H433.33 Z M444.44,300 V311.11 H455.56 V300 H444.44 Z M77.78,311.11 V322.22 H88.89 V311.11 H77.78 Z M111.11,311.11 V322.22 H122.22 V311.11 H111.11 Z M133.33,311.11 V322.22 H144.44 V311.11 H133.33 Z M222.22,311.11 V322.22 H233.33 V311.11 H222.22 Z M233.33,311.11 V322.22 H244.44 V311.11 H233.33 Z M244.44,311.11 V322.22 H255.56 V311.11 H244.44 Z M266.67,311.11 V322.22 H277.78 V311.11 H266.67 Z M288.89,311.11 V322.22 H300.00 V311.11 H288.89 Z M300,311.11 V322.22 H311.11 V311.11 H300 Z M333.33,311.11 V322.22 H344.44 V311.11 H333.33 Z M344.44,311.11 V322.22 H355.56 V311.11 H344.44 Z M366.67,311.11 V322.22 H377.78 V311.11 H366.67 Z M377.78,311.11 V322.22 H388.89 V311.11 H377.78 Z M433.33,311.11 V322.22 H444.44 V311.11 H433.33 Z M444.44,311.11 V322.22 H455.56 V311.11 H444.44 Z M66.67,322.22 V333.33 H77.78 V322.22 H66.67 Z M77.78,322.22 V333.33 H88.89 V322.22 H77.78 Z M88.89,322.22 V333.33 H100 V322.22 H88.89 Z M122.22,322.22 V333.33 H133.33 V322.22 H122.22 Z M133.33,322.22 V333.33 H144.44 V322.22 H133.33 Z M144.44,322.22 V333.33 H155.56 V322.22 H144.44 Z M155.56,322.22 V333.33 H166.67 V322.22 H155.56 Z M166.67,322.22 V333.33 H177.78 V322.22 H166.67 Z M177.78,322.22 V333.33 H188.89 V322.22 H177.78 Z M188.89,322.22 V333.33 H200.00 V322.22 H188.89 Z M222.22,322.22 V333.33 H233.33 V322.22 H222.22 Z M233.33,322.22 V333.33 H244.44 V322.22 H233.33 Z M244.44,322.22 V333.33 H255.56 V322.22 H244.44 Z M300,322.22 V333.33 H311.11 V322.22 H300 Z M355.56,322.22 V333.33 H366.67 V322.22 H355.56 Z M366.67,322.22 V333.33 H377.78 V322.22 H366.67 Z M377.78,322.22 V333.33 H388.89 V322.22 H377.78 Z M411.11,322.22 V333.33 H422.22 V322.22 H411.11 Z M422.22,322.22 V333.33 H433.33 V322.22 H422.22 Z M433.33,322.22 V333.33 H444.44 V322.22 H433.33 Z M444.44,322.22 V333.33 H455.56 V322.22 H444.44 Z M55.56,333.33 V344.44 H66.67 V333.33 H55.56 Z M66.67,333.33 V344.44 H77.78 V333.33 H66.67 Z M77.78,333.33 V344.44 H88.89 V333.33 H77.78 Z M100,333.33 V344.44 H111.11 V333.33 H100 Z M111.11,333.33 V344.44 H122.22 V333.33 H111.11 Z M122.22,333.33 V344.44 H133.33 V333.33 H122.22 Z M133.33,333.33 V344.44 H144.44 V333.33 H133.33 Z M166.67,333.33 V344.44 H177.78 V333.33 H166.67 Z M177.78,333.33 V344.44 H188.89 V333.33 H177.78 Z M188.89,333.33 V344.44 H200.00 V333.33 H188.89 Z M200,333.33 V344.44 H211.11 V333.33 H200 Z M211.11,333.33 V344.44 H222.22 V333.33 H211.11 Z M255.56,333.33 V344.44 H266.67 V333.33 H255.56 Z M266.67,333.33 V344.44 H277.78 V333.33 H266.67 Z M288.89,333.33 V344.44 H300.00 V333.33 H288.89 Z M300,333.33 V344.44 H311.11 V333.33 H300 Z M333.33,333.33 V344.44 H344.44 V333.33 H333.33 Z M344.44,333.33 V344.44 H355.56 V333.33 H344.44 Z M388.89,333.33 V344.44 H400 V333.33 H388.89 Z M400,333.33 V344.44 H411.11 V333.33 H400 Z M444.44,333.33 V344.44 H455.56 V333.33 H444.44 Z M88.89,344.44 V355.56 H100 V344.44 H88.89 Z M122.22,344.44 V355.56 H133.33 V344.44 H122.22 Z M133.33,344.44 V355.56 H144.44 V344.44 H133.33 Z M144.44,344.44 V355.56 H155.56 V344.44 H144.44 Z M177.78,344.44 V355.56 H188.89 V344.44 H177.78 Z M188.89,344.44 V355.56 H200.00 V344.44 H188.89 Z M211.11,344.44 V355.56 H222.22 V344.44 H211.11 Z M233.33,344.44 V355.56 H244.44 V344.44 H233.33 Z M244.44,344.44 V355.56 H255.56 V344.44 H244.44 Z M255.56,344.44 V355.56 H266.67 V344.44 H255.56 Z M266.67,344.44 V355.56 H277.78 V344.44 H266.67 Z M300,344.44 V355.56 H311.11 V344.44 H300 Z M333.33,344.44 V355.56 H344.44 V344.44 H333.33 Z M355.56,344.44 V355.56 H366.67 V344.44 H355.56 Z M388.89,344.44 V355.56 H400 V344.44 H388.89 Z M411.11,344.44 V355.56 H422.22 V344.44 H411.11 Z M422.22,344.44 V355.56 H433.33 V344.44 H422.22 Z M55.56,355.56 V366.67 H66.67 V355.56 H55.56 Z M111.11,355.56 V366.67 H122.22 V355.56 H111.11 Z M122.22,355.56 V366.67 H133.33 V355.56 H122.22 Z M155.56,355.56 V366.67 H166.67 V355.56 H155.56 Z M166.67,355.56 V366.67 H177.78 V355.56 H166.67 Z M188.89,355.56 V366.67 H200.00 V355.56 H188.89 Z M211.11,355.56 V366.67 H222.22 V355.56 H211.11 Z M244.44,355.56 V366.67 H255.56 V355.56 H244.44 Z M255.56,355.56 V366.67 H266.67 V355.56 H255.56 Z M266.67,355.56 V366.67 H277.78 V355.56 H266.67 Z M300,355.56 V366.67 H311.11 V355.56 H300 Z M322.22,355.56 V366.67 H333.33 V355.56 H322.22 Z M333.33,355.56 V366.67 H344.44 V355.56 H333.33 Z M344.44,355.56 V366.67 H355.56 V355.56 H344.44 Z M355.56,355.56 V366.67 H366.67 V355.56 H355.56 Z M366.67,355.56 V366.67 H377.78 V355.56 H366.67 Z M377.78,355.56 V366.67 H388.89 V355.56 H377.78 Z M388.89,355.56 V366.67 H400 V355.56 H388.89 Z M400,355.56 V366.67 H411.11 V355.56 H400 Z M422.22,355.56 V366.67 H433.33 V355.56 H422.22 Z M133.33,366.67 V377.78 H144.44 V366.67 H133.33 Z M155.56,366.67 V377.78 H166.67 V366.67 H155.56 Z M177.78,366.67 V377.78 H188.89 V366.67 H177.78 Z M200,366.67 V377.78 H211.11 V366.67 H200 Z M244.44,366.67 V377.78 H255.56 V366.67 H244.44 Z M266.67,366.67 V377.78 H277.78 V366.67 H266.67 Z M288.89,366.67 V377.78 H300.00 V366.67 H288.89 Z M300,366.67 V377.78 H311.11 V366.67 H300 Z M344.44,366.67 V377.78 H355.56 V366.67 H344.44 Z M355.56,366.67 V377.78 H366.67 V366.67 H355.56 Z M400,366.67 V377.78 H411.11 V366.67 H400 Z M444.44,366.67 V377.78 H455.56 V366.67 H444.44 Z M44.44,377.78 V388.89 H55.56 V377.78 H44.44 Z M55.56,377.78 V388.89 H66.67 V377.78 H55.56 Z M66.67,377.78 V388.89 H77.78 V377.78 H66.67 Z M77.78,377.78 V388.89 H88.89 V377.78 H77.78 Z M88.89,377.78 V388.89 H100 V377.78 H88.89 Z M100,377.78 V388.89 H111.11 V377.78 H100 Z M111.11,377.78 V388.89 H122.22 V377.78 H111.11 Z M133.33,377.78 V388.89 H144.44 V377.78 H133.33 Z M144.44,377.78 V388.89 H155.56 V377.78 H144.44 Z M177.78,377.78 V388.89 H188.89 V377.78 H177.78 Z M188.89,377.78 V388.89 H200.00 V377.78 H188.89 Z M200,377.78 V388.89 H211.11 V377.78 H200 Z M233.33,377.78 V388.89 H244.44 V377.78 H233.33 Z M255.56,377.78 V388.89 H266.67 V377.78 H255.56 Z M311.11,377.78 V388.89 H322.22 V377.78 H311.11 Z M355.56,377.78 V388.89 H366.67 V377.78 H355.56 Z M377.78,377.78 V388.89 H388.89 V377.78 H377.78 Z M400,377.78 V388.89 H411.11 V377.78 H400 Z M411.11,377.78 V388.89 H422.22 V377.78 H411.11 Z M422.22,377.78 V388.89 H433.33 V377.78 H422.22 Z M44.44,388.89 V400 H55.56 V388.89 H44.44 Z M111.11,388.89 V400 H122.22 V388.89 H111.11 Z M144.44,388.89 V400 H155.56 V388.89 H144.44 Z M233.33,388.89 V400 H244.44 V388.89 H233.33 Z M277.78,388.89 V400 H288.89 V388.89 H277.78 Z M333.33,388.89 V400 H344.44 V388.89 H333.33 Z M344.44,388.89 V400 H355.56 V388.89 H344.44 Z M355.56,388.89 V400 H366.67 V388.89 H355.56 Z M400,388.89 V400 H411.11 V388.89 H400 Z M411.11,388.89 V400 H422.22 V388.89 H411.11 Z M44.44,400 V411.11 H55.56 V400 H44.44 Z M66.67,400 V411.11 H77.78 V400 H66.67 Z M77.78,400 V411.11 H88.89 V400 H77.78 Z M88.89,400 V411.11 H100 V400 H88.89 Z M111.11,400 V411.11 H122.22 V400 H111.11 Z M133.33,400 V411.11 H144.44 V400 H133.33 Z M144.44,400 V411.11 H155.56 V400 H144.44 Z M166.67,400 V411.11 H177.78 V400 H166.67 Z M177.78,400 V411.11 H188.89 V400 H177.78 Z M188.89,400 V411.11 H200.00 V400 H188.89 Z M244.44,400 V411.11 H255.56 V400 H244.44 Z M255.56,400 V411.11 H266.67 V400 H255.56 Z M266.67,400 V411.11 H277.78 V400 H266.67 Z M288.89,400 V411.11 H300.00 V400 H288.89 Z M322.22,400 V411.11 H333.33 V400 H322.22 Z M355.56,400 V411.11 H366.67 V400 H355.56 Z M366.67,400 V411.11 H377.78 V400 H366.67 Z M377.78,400 V411.11 H388.89 V400 H377.78 Z M388.89,400 V411.11 H400 V400 H388.89 Z M400,400 V411.11 H411.11 V400 H400 Z M411.11,400 V411.11 H422.22 V400 H411.11 Z M422.22,400 V411.11 H433.33 V400 H422.22 Z M433.33,400 V411.11 H444.44 V400 H433.33 Z M44.44,411.11 V422.22 H55.56 V411.11 H44.44 Z M66.67,411.11 V422.22 H77.78 V411.11 H66.67 Z M77.78,411.11 V422.22 H88.89 V411.11 H77.78 Z M88.89,411.11 V422.22 H100 V411.11 H88.89 Z M111.11,411.11 V422.22 H122.22 V411.11 H111.11 Z M144.44,411.11 V422.22 H155.56 V411.11 H144.44 Z M155.56,411.11 V422.22 H166.67 V411.11 H155.56 Z M166.67,411.11 V422.22 H177.78 V411.11 H166.67 Z M222.22,411.11 V422.22 H233.33 V411.11 H222.22 Z M244.44,411.11 V422.22 H255.56 V411.11 H244.44 Z M255.56,411.11 V422.22 H266.67 V411.11 H255.56 Z M266.67,411.11 V422.22 H277.78 V411.11 H266.67 Z M277.78,411.11 V422.22 H288.89 V411.11 H277.78 Z M288.89,411.11 V422.22 H300.00 V411.11 H288.89 Z M300,411.11 V422.22 H311.11 V411.11 H300 Z M366.67,411.11 V422.22 H377.78 V411.11 H366.67 Z M377.78,411.11 V422.22 H388.89 V411.11 H377.78 Z M388.89,411.11 V422.22 H400 V411.11 H388.89 Z M400,411.11 V422.22 H411.11 V411.11 H400 Z M422.22,411.11 V422.22 H433.33 V411.11 H422.22 Z M433.33,411.11 V422.22 H444.44 V411.11 H433.33 Z M444.44,411.11 V422.22 H455.56 V411.11 H444.44 Z M44.44,422.22 V433.33 H55.56 V422.22 H44.44 Z M66.67,422.22 V433.33 H77.78 V422.22 H66.67 Z M77.78,422.22 V433.33 H88.89 V422.22 H77.78 Z M88.89,422.22 V433.33 H100 V422.22 H88.89 Z M111.11,422.22 V433.33 H122.22 V422.22 H111.11 Z M166.67,422.22 V433.33 H177.78 V422.22 H166.67 Z M177.78,422.22 V433.33 H188.89 V422.22 H177.78 Z M188.89,422.22 V433.33 H200.00 V422.22 H188.89 Z M200,422.22 V433.33 H211.11 V422.22 H200 Z M222.22,422.22 V433.33 H233.33 V422.22 H222.22 Z M277.78,422.22 V433.33 H288.89 V422.22 H277.78 Z M300,422.22 V433.33 H311.11 V422.22 H300 Z M311.11,422.22 V433.33 H322.22 V422.22 H311.11 Z M355.56,422.22 V433.33 H366.67 V422.22 H355.56 Z M366.67,422.22 V433.33 H377.78 V422.22 H366.67 Z M433.33,422.22 V433.33 H444.44 V422.22 H433.33 Z M444.44,422.22 V433.33 H455.56 V422.22 H444.44 Z M44.44,433.33 V444.44 H55.56 V433.33 H44.44 Z M111.11,433.33 V444.44 H122.22 V433.33 H111.11 Z M188.89,433.33 V444.44 H200.00 V433.33 H188.89 Z M200,433.33 V444.44 H211.11 V433.33 H200 Z M244.44,433.33 V444.44 H255.56 V433.33 H244.44 Z M255.56,433.33 V444.44 H266.67 V433.33 H255.56 Z M266.67,433.33 V444.44 H277.78 V433.33 H266.67 Z M300,433.33 V444.44 H311.11 V433.33 H300 Z M311.11,433.33 V444.44 H322.22 V433.33 H311.11 Z M322.22,433.33 V444.44 H333.33 V433.33 H322.22 Z M333.33,433.33 V444.44 H344.44 V433.33 H333.33 Z M344.44,433.33 V444.44 H355.56 V433.33 H344.44 Z M366.67,433.33 V444.44 H377.78 V433.33 H366.67 Z M377.78,433.33 V444.44 H388.89 V433.33 H377.78 Z M422.22,433.33 V444.44 H433.33 V433.33 H422.22 Z M444.44,433.33 V444.44 H455.56 V433.33 H444.44 Z M44.44,444.44 V455.56 H55.56 V444.44 H44.44 Z M55.56,444.44 V455.56 H66.67 V444.44 H55.56 Z M66.67,444.44 V455.56 H77.78 V444.44 H66.67 Z M77.78,444.44 V455.56 H88.89 V444.44 H77.78 Z M88.89,444.44 V455.56 H100 V444.44 H88.89 Z M100,444.44 V455.56 H111.11 V444.44 H100 Z M111.11,444.44 V455.56 H122.22 V444.44 H111.11 Z M166.67,444.44 V455.56 H177.78 V444.44 H166.67 Z M177.78,444.44 V455.56 H188.89 V444.44 H177.78 Z M188.89,444.44 V455.56 H200.00 V444.44 H188.89 Z M211.11,444.44 V455.56 H222.22 V444.44 H211.11 Z M233.33,444.44 V455.56 H244.44 V444.44 H233.33 Z M244.44,444.44 V455.56 H255.56 V444.44 H244.44 Z M300,444.44 V455.56 H311.11 V444.44 H300 Z M322.22,444.44 V455.56 H333.33 V444.44 H322.22 Z M355.56,444.44 V455.56 H366.67 V444.44 H355.56 Z M366.67,444.44 V455.56 H377.78 V444.44 H366.67 Z M377.78,444.44 V455.56 H388.89 V444.44 H377.78 Z M400,444.44 V455.56 H411.11 V444.44 H400 Z M444.44,444.44 V455.56 H455.56 V444.44 H444.44 Z " fill="#FFFFFF"/></g></svg>