%TF.GenerationSoftware,KiCad,Pcbnew,10.0.1*%
%TF.CreationDate,2026-05-24T20:11:42-05:00*%
%TF.ProjectId,learnboard,6c656172-6e62-46f6-9172-642e6b696361,rev?*%
%TF.SameCoordinates,Original*%
%TF.FileFunction,Legend,Bot*%
%TF.FilePolarity,Positive*%
%FSLAX46Y46*%
G04 Gerber Fmt 4.6, Leading zero omitted, Abs format (unit mm)*
G04 Created by KiCad (PCBNEW 10.0.1) date 2026-05-24 20:11:42*
%MOMM*%
%LPD*%
G01*
G04 APERTURE LIST*
%ADD10C,0.150000*%
%ADD11C,0.120000*%
%ADD12C,0.100000*%
G04 APERTURE END LIST*
D10*
X256691785Y-236444819D02*
X256691785Y-235444819D01*
X256691785Y-235444819D02*
X256453690Y-235444819D01*
X256453690Y-235444819D02*
X256310833Y-235492438D01*
X256310833Y-235492438D02*
X256215595Y-235587676D01*
X256215595Y-235587676D02*
X256167976Y-235682914D01*
X256167976Y-235682914D02*
X256120357Y-235873390D01*
X256120357Y-235873390D02*
X256120357Y-236016247D01*
X256120357Y-236016247D02*
X256167976Y-236206723D01*
X256167976Y-236206723D02*
X256215595Y-236301961D01*
X256215595Y-236301961D02*
X256310833Y-236397200D01*
X256310833Y-236397200D02*
X256453690Y-236444819D01*
X256453690Y-236444819D02*
X256691785Y-236444819D01*
X255167976Y-236444819D02*
X255739404Y-236444819D01*
X255453690Y-236444819D02*
X255453690Y-235444819D01*
X255453690Y-235444819D02*
X255548928Y-235587676D01*
X255548928Y-235587676D02*
X255644166Y-235682914D01*
X255644166Y-235682914D02*
X255739404Y-235730533D01*
X254787023Y-235540057D02*
X254739404Y-235492438D01*
X254739404Y-235492438D02*
X254644166Y-235444819D01*
X254644166Y-235444819D02*
X254406071Y-235444819D01*
X254406071Y-235444819D02*
X254310833Y-235492438D01*
X254310833Y-235492438D02*
X254263214Y-235540057D01*
X254263214Y-235540057D02*
X254215595Y-235635295D01*
X254215595Y-235635295D02*
X254215595Y-235730533D01*
X254215595Y-235730533D02*
X254263214Y-235873390D01*
X254263214Y-235873390D02*
X254834642Y-236444819D01*
X254834642Y-236444819D02*
X254215595Y-236444819D01*
X260819404Y-236864819D02*
X260819404Y-235864819D01*
X260247976Y-236864819D02*
X260676547Y-236293390D01*
X260247976Y-235864819D02*
X260819404Y-236436247D01*
X227384285Y-200054819D02*
X227384285Y-199054819D01*
X227384285Y-199054819D02*
X227146190Y-199054819D01*
X227146190Y-199054819D02*
X227003333Y-199102438D01*
X227003333Y-199102438D02*
X226908095Y-199197676D01*
X226908095Y-199197676D02*
X226860476Y-199292914D01*
X226860476Y-199292914D02*
X226812857Y-199483390D01*
X226812857Y-199483390D02*
X226812857Y-199626247D01*
X226812857Y-199626247D02*
X226860476Y-199816723D01*
X226860476Y-199816723D02*
X226908095Y-199911961D01*
X226908095Y-199911961D02*
X227003333Y-200007200D01*
X227003333Y-200007200D02*
X227146190Y-200054819D01*
X227146190Y-200054819D02*
X227384285Y-200054819D01*
X225860476Y-200054819D02*
X226431904Y-200054819D01*
X226146190Y-200054819D02*
X226146190Y-199054819D01*
X226146190Y-199054819D02*
X226241428Y-199197676D01*
X226241428Y-199197676D02*
X226336666Y-199292914D01*
X226336666Y-199292914D02*
X226431904Y-199340533D01*
X224908095Y-200054819D02*
X225479523Y-200054819D01*
X225193809Y-200054819D02*
X225193809Y-199054819D01*
X225193809Y-199054819D02*
X225289047Y-199197676D01*
X225289047Y-199197676D02*
X225384285Y-199292914D01*
X225384285Y-199292914D02*
X225479523Y-199340533D01*
X231511904Y-200474819D02*
X231511904Y-199474819D01*
X230940476Y-200474819D02*
X231369047Y-199903390D01*
X230940476Y-199474819D02*
X231511904Y-200046247D01*
X185528094Y-212474819D02*
X185528094Y-211474819D01*
X185528094Y-211474819D02*
X185289999Y-211474819D01*
X185289999Y-211474819D02*
X185147142Y-211522438D01*
X185147142Y-211522438D02*
X185051904Y-211617676D01*
X185051904Y-211617676D02*
X185004285Y-211712914D01*
X185004285Y-211712914D02*
X184956666Y-211903390D01*
X184956666Y-211903390D02*
X184956666Y-212046247D01*
X184956666Y-212046247D02*
X185004285Y-212236723D01*
X185004285Y-212236723D02*
X185051904Y-212331961D01*
X185051904Y-212331961D02*
X185147142Y-212427200D01*
X185147142Y-212427200D02*
X185289999Y-212474819D01*
X185289999Y-212474819D02*
X185528094Y-212474819D01*
X184385237Y-211903390D02*
X184480475Y-211855771D01*
X184480475Y-211855771D02*
X184528094Y-211808152D01*
X184528094Y-211808152D02*
X184575713Y-211712914D01*
X184575713Y-211712914D02*
X184575713Y-211665295D01*
X184575713Y-211665295D02*
X184528094Y-211570057D01*
X184528094Y-211570057D02*
X184480475Y-211522438D01*
X184480475Y-211522438D02*
X184385237Y-211474819D01*
X184385237Y-211474819D02*
X184194761Y-211474819D01*
X184194761Y-211474819D02*
X184099523Y-211522438D01*
X184099523Y-211522438D02*
X184051904Y-211570057D01*
X184051904Y-211570057D02*
X184004285Y-211665295D01*
X184004285Y-211665295D02*
X184004285Y-211712914D01*
X184004285Y-211712914D02*
X184051904Y-211808152D01*
X184051904Y-211808152D02*
X184099523Y-211855771D01*
X184099523Y-211855771D02*
X184194761Y-211903390D01*
X184194761Y-211903390D02*
X184385237Y-211903390D01*
X184385237Y-211903390D02*
X184480475Y-211951009D01*
X184480475Y-211951009D02*
X184528094Y-211998628D01*
X184528094Y-211998628D02*
X184575713Y-212093866D01*
X184575713Y-212093866D02*
X184575713Y-212284342D01*
X184575713Y-212284342D02*
X184528094Y-212379580D01*
X184528094Y-212379580D02*
X184480475Y-212427200D01*
X184480475Y-212427200D02*
X184385237Y-212474819D01*
X184385237Y-212474819D02*
X184194761Y-212474819D01*
X184194761Y-212474819D02*
X184099523Y-212427200D01*
X184099523Y-212427200D02*
X184051904Y-212379580D01*
X184051904Y-212379580D02*
X184004285Y-212284342D01*
X184004285Y-212284342D02*
X184004285Y-212093866D01*
X184004285Y-212093866D02*
X184051904Y-211998628D01*
X184051904Y-211998628D02*
X184099523Y-211951009D01*
X184099523Y-211951009D02*
X184194761Y-211903390D01*
X190131904Y-212894819D02*
X190131904Y-211894819D01*
X189560476Y-212894819D02*
X189989047Y-212323390D01*
X189560476Y-211894819D02*
X190131904Y-212466247D01*
X191178094Y-228634819D02*
X191178094Y-227634819D01*
X191178094Y-227634819D02*
X190939999Y-227634819D01*
X190939999Y-227634819D02*
X190797142Y-227682438D01*
X190797142Y-227682438D02*
X190701904Y-227777676D01*
X190701904Y-227777676D02*
X190654285Y-227872914D01*
X190654285Y-227872914D02*
X190606666Y-228063390D01*
X190606666Y-228063390D02*
X190606666Y-228206247D01*
X190606666Y-228206247D02*
X190654285Y-228396723D01*
X190654285Y-228396723D02*
X190701904Y-228491961D01*
X190701904Y-228491961D02*
X190797142Y-228587200D01*
X190797142Y-228587200D02*
X190939999Y-228634819D01*
X190939999Y-228634819D02*
X191178094Y-228634819D01*
X190273332Y-227634819D02*
X189606666Y-227634819D01*
X189606666Y-227634819D02*
X190035237Y-228634819D01*
X195781904Y-229054819D02*
X195781904Y-228054819D01*
X195210476Y-229054819D02*
X195639047Y-228483390D01*
X195210476Y-228054819D02*
X195781904Y-228626247D01*
X295846785Y-196084819D02*
X295846785Y-195084819D01*
X295846785Y-195084819D02*
X295608690Y-195084819D01*
X295608690Y-195084819D02*
X295465833Y-195132438D01*
X295465833Y-195132438D02*
X295370595Y-195227676D01*
X295370595Y-195227676D02*
X295322976Y-195322914D01*
X295322976Y-195322914D02*
X295275357Y-195513390D01*
X295275357Y-195513390D02*
X295275357Y-195656247D01*
X295275357Y-195656247D02*
X295322976Y-195846723D01*
X295322976Y-195846723D02*
X295370595Y-195941961D01*
X295370595Y-195941961D02*
X295465833Y-196037200D01*
X295465833Y-196037200D02*
X295608690Y-196084819D01*
X295608690Y-196084819D02*
X295846785Y-196084819D01*
X294322976Y-196084819D02*
X294894404Y-196084819D01*
X294608690Y-196084819D02*
X294608690Y-195084819D01*
X294608690Y-195084819D02*
X294703928Y-195227676D01*
X294703928Y-195227676D02*
X294799166Y-195322914D01*
X294799166Y-195322914D02*
X294894404Y-195370533D01*
X293989642Y-195084819D02*
X293370595Y-195084819D01*
X293370595Y-195084819D02*
X293703928Y-195465771D01*
X293703928Y-195465771D02*
X293561071Y-195465771D01*
X293561071Y-195465771D02*
X293465833Y-195513390D01*
X293465833Y-195513390D02*
X293418214Y-195561009D01*
X293418214Y-195561009D02*
X293370595Y-195656247D01*
X293370595Y-195656247D02*
X293370595Y-195894342D01*
X293370595Y-195894342D02*
X293418214Y-195989580D01*
X293418214Y-195989580D02*
X293465833Y-196037200D01*
X293465833Y-196037200D02*
X293561071Y-196084819D01*
X293561071Y-196084819D02*
X293846785Y-196084819D01*
X293846785Y-196084819D02*
X293942023Y-196037200D01*
X293942023Y-196037200D02*
X293989642Y-195989580D01*
X299974404Y-196504819D02*
X299974404Y-195504819D01*
X299402976Y-196504819D02*
X299831547Y-195933390D01*
X299402976Y-195504819D02*
X299974404Y-196076247D01*
X107413094Y-187884819D02*
X107413094Y-186884819D01*
X107413094Y-186884819D02*
X107174999Y-186884819D01*
X107174999Y-186884819D02*
X107032142Y-186932438D01*
X107032142Y-186932438D02*
X106936904Y-187027676D01*
X106936904Y-187027676D02*
X106889285Y-187122914D01*
X106889285Y-187122914D02*
X106841666Y-187313390D01*
X106841666Y-187313390D02*
X106841666Y-187456247D01*
X106841666Y-187456247D02*
X106889285Y-187646723D01*
X106889285Y-187646723D02*
X106936904Y-187741961D01*
X106936904Y-187741961D02*
X107032142Y-187837200D01*
X107032142Y-187837200D02*
X107174999Y-187884819D01*
X107174999Y-187884819D02*
X107413094Y-187884819D01*
X106508332Y-186884819D02*
X105889285Y-186884819D01*
X105889285Y-186884819D02*
X106222618Y-187265771D01*
X106222618Y-187265771D02*
X106079761Y-187265771D01*
X106079761Y-187265771D02*
X105984523Y-187313390D01*
X105984523Y-187313390D02*
X105936904Y-187361009D01*
X105936904Y-187361009D02*
X105889285Y-187456247D01*
X105889285Y-187456247D02*
X105889285Y-187694342D01*
X105889285Y-187694342D02*
X105936904Y-187789580D01*
X105936904Y-187789580D02*
X105984523Y-187837200D01*
X105984523Y-187837200D02*
X106079761Y-187884819D01*
X106079761Y-187884819D02*
X106365475Y-187884819D01*
X106365475Y-187884819D02*
X106460713Y-187837200D01*
X106460713Y-187837200D02*
X106508332Y-187789580D01*
X112016904Y-188304819D02*
X112016904Y-187304819D01*
X111445476Y-188304819D02*
X111874047Y-187733390D01*
X111445476Y-187304819D02*
X112016904Y-187876247D01*
X190148094Y-201814819D02*
X190148094Y-200814819D01*
X190148094Y-200814819D02*
X189909999Y-200814819D01*
X189909999Y-200814819D02*
X189767142Y-200862438D01*
X189767142Y-200862438D02*
X189671904Y-200957676D01*
X189671904Y-200957676D02*
X189624285Y-201052914D01*
X189624285Y-201052914D02*
X189576666Y-201243390D01*
X189576666Y-201243390D02*
X189576666Y-201386247D01*
X189576666Y-201386247D02*
X189624285Y-201576723D01*
X189624285Y-201576723D02*
X189671904Y-201671961D01*
X189671904Y-201671961D02*
X189767142Y-201767200D01*
X189767142Y-201767200D02*
X189909999Y-201814819D01*
X189909999Y-201814819D02*
X190148094Y-201814819D01*
X188719523Y-200814819D02*
X188909999Y-200814819D01*
X188909999Y-200814819D02*
X189005237Y-200862438D01*
X189005237Y-200862438D02*
X189052856Y-200910057D01*
X189052856Y-200910057D02*
X189148094Y-201052914D01*
X189148094Y-201052914D02*
X189195713Y-201243390D01*
X189195713Y-201243390D02*
X189195713Y-201624342D01*
X189195713Y-201624342D02*
X189148094Y-201719580D01*
X189148094Y-201719580D02*
X189100475Y-201767200D01*
X189100475Y-201767200D02*
X189005237Y-201814819D01*
X189005237Y-201814819D02*
X188814761Y-201814819D01*
X188814761Y-201814819D02*
X188719523Y-201767200D01*
X188719523Y-201767200D02*
X188671904Y-201719580D01*
X188671904Y-201719580D02*
X188624285Y-201624342D01*
X188624285Y-201624342D02*
X188624285Y-201386247D01*
X188624285Y-201386247D02*
X188671904Y-201291009D01*
X188671904Y-201291009D02*
X188719523Y-201243390D01*
X188719523Y-201243390D02*
X188814761Y-201195771D01*
X188814761Y-201195771D02*
X189005237Y-201195771D01*
X189005237Y-201195771D02*
X189100475Y-201243390D01*
X189100475Y-201243390D02*
X189148094Y-201291009D01*
X189148094Y-201291009D02*
X189195713Y-201386247D01*
X194751904Y-202234819D02*
X194751904Y-201234819D01*
X194180476Y-202234819D02*
X194609047Y-201663390D01*
X194180476Y-201234819D02*
X194751904Y-201806247D01*
X333961785Y-234064819D02*
X333961785Y-233064819D01*
X333961785Y-233064819D02*
X333723690Y-233064819D01*
X333723690Y-233064819D02*
X333580833Y-233112438D01*
X333580833Y-233112438D02*
X333485595Y-233207676D01*
X333485595Y-233207676D02*
X333437976Y-233302914D01*
X333437976Y-233302914D02*
X333390357Y-233493390D01*
X333390357Y-233493390D02*
X333390357Y-233636247D01*
X333390357Y-233636247D02*
X333437976Y-233826723D01*
X333437976Y-233826723D02*
X333485595Y-233921961D01*
X333485595Y-233921961D02*
X333580833Y-234017200D01*
X333580833Y-234017200D02*
X333723690Y-234064819D01*
X333723690Y-234064819D02*
X333961785Y-234064819D01*
X332437976Y-234064819D02*
X333009404Y-234064819D01*
X332723690Y-234064819D02*
X332723690Y-233064819D01*
X332723690Y-233064819D02*
X332818928Y-233207676D01*
X332818928Y-233207676D02*
X332914166Y-233302914D01*
X332914166Y-233302914D02*
X333009404Y-233350533D01*
X331580833Y-233064819D02*
X331771309Y-233064819D01*
X331771309Y-233064819D02*
X331866547Y-233112438D01*
X331866547Y-233112438D02*
X331914166Y-233160057D01*
X331914166Y-233160057D02*
X332009404Y-233302914D01*
X332009404Y-233302914D02*
X332057023Y-233493390D01*
X332057023Y-233493390D02*
X332057023Y-233874342D01*
X332057023Y-233874342D02*
X332009404Y-233969580D01*
X332009404Y-233969580D02*
X331961785Y-234017200D01*
X331961785Y-234017200D02*
X331866547Y-234064819D01*
X331866547Y-234064819D02*
X331676071Y-234064819D01*
X331676071Y-234064819D02*
X331580833Y-234017200D01*
X331580833Y-234017200D02*
X331533214Y-233969580D01*
X331533214Y-233969580D02*
X331485595Y-233874342D01*
X331485595Y-233874342D02*
X331485595Y-233636247D01*
X331485595Y-233636247D02*
X331533214Y-233541009D01*
X331533214Y-233541009D02*
X331580833Y-233493390D01*
X331580833Y-233493390D02*
X331676071Y-233445771D01*
X331676071Y-233445771D02*
X331866547Y-233445771D01*
X331866547Y-233445771D02*
X331961785Y-233493390D01*
X331961785Y-233493390D02*
X332009404Y-233541009D01*
X332009404Y-233541009D02*
X332057023Y-233636247D01*
X291176785Y-233354819D02*
X291176785Y-232354819D01*
X291176785Y-232354819D02*
X290938690Y-232354819D01*
X290938690Y-232354819D02*
X290795833Y-232402438D01*
X290795833Y-232402438D02*
X290700595Y-232497676D01*
X290700595Y-232497676D02*
X290652976Y-232592914D01*
X290652976Y-232592914D02*
X290605357Y-232783390D01*
X290605357Y-232783390D02*
X290605357Y-232926247D01*
X290605357Y-232926247D02*
X290652976Y-233116723D01*
X290652976Y-233116723D02*
X290700595Y-233211961D01*
X290700595Y-233211961D02*
X290795833Y-233307200D01*
X290795833Y-233307200D02*
X290938690Y-233354819D01*
X290938690Y-233354819D02*
X291176785Y-233354819D01*
X289652976Y-233354819D02*
X290224404Y-233354819D01*
X289938690Y-233354819D02*
X289938690Y-232354819D01*
X289938690Y-232354819D02*
X290033928Y-232497676D01*
X290033928Y-232497676D02*
X290129166Y-232592914D01*
X290129166Y-232592914D02*
X290224404Y-232640533D01*
X289033928Y-232354819D02*
X288938690Y-232354819D01*
X288938690Y-232354819D02*
X288843452Y-232402438D01*
X288843452Y-232402438D02*
X288795833Y-232450057D01*
X288795833Y-232450057D02*
X288748214Y-232545295D01*
X288748214Y-232545295D02*
X288700595Y-232735771D01*
X288700595Y-232735771D02*
X288700595Y-232973866D01*
X288700595Y-232973866D02*
X288748214Y-233164342D01*
X288748214Y-233164342D02*
X288795833Y-233259580D01*
X288795833Y-233259580D02*
X288843452Y-233307200D01*
X288843452Y-233307200D02*
X288938690Y-233354819D01*
X288938690Y-233354819D02*
X289033928Y-233354819D01*
X289033928Y-233354819D02*
X289129166Y-233307200D01*
X289129166Y-233307200D02*
X289176785Y-233259580D01*
X289176785Y-233259580D02*
X289224404Y-233164342D01*
X289224404Y-233164342D02*
X289272023Y-232973866D01*
X289272023Y-232973866D02*
X289272023Y-232735771D01*
X289272023Y-232735771D02*
X289224404Y-232545295D01*
X289224404Y-232545295D02*
X289176785Y-232450057D01*
X289176785Y-232450057D02*
X289129166Y-232402438D01*
X289129166Y-232402438D02*
X289033928Y-232354819D01*
X295304404Y-233774819D02*
X295304404Y-232774819D01*
X294732976Y-233774819D02*
X295161547Y-233203390D01*
X294732976Y-232774819D02*
X295304404Y-233346247D01*
X330196785Y-182604819D02*
X330196785Y-181604819D01*
X330196785Y-181604819D02*
X329958690Y-181604819D01*
X329958690Y-181604819D02*
X329815833Y-181652438D01*
X329815833Y-181652438D02*
X329720595Y-181747676D01*
X329720595Y-181747676D02*
X329672976Y-181842914D01*
X329672976Y-181842914D02*
X329625357Y-182033390D01*
X329625357Y-182033390D02*
X329625357Y-182176247D01*
X329625357Y-182176247D02*
X329672976Y-182366723D01*
X329672976Y-182366723D02*
X329720595Y-182461961D01*
X329720595Y-182461961D02*
X329815833Y-182557200D01*
X329815833Y-182557200D02*
X329958690Y-182604819D01*
X329958690Y-182604819D02*
X330196785Y-182604819D01*
X328672976Y-182604819D02*
X329244404Y-182604819D01*
X328958690Y-182604819D02*
X328958690Y-181604819D01*
X328958690Y-181604819D02*
X329053928Y-181747676D01*
X329053928Y-181747676D02*
X329149166Y-181842914D01*
X329149166Y-181842914D02*
X329244404Y-181890533D01*
X327768214Y-181604819D02*
X328244404Y-181604819D01*
X328244404Y-181604819D02*
X328292023Y-182081009D01*
X328292023Y-182081009D02*
X328244404Y-182033390D01*
X328244404Y-182033390D02*
X328149166Y-181985771D01*
X328149166Y-181985771D02*
X327911071Y-181985771D01*
X327911071Y-181985771D02*
X327815833Y-182033390D01*
X327815833Y-182033390D02*
X327768214Y-182081009D01*
X327768214Y-182081009D02*
X327720595Y-182176247D01*
X327720595Y-182176247D02*
X327720595Y-182414342D01*
X327720595Y-182414342D02*
X327768214Y-182509580D01*
X327768214Y-182509580D02*
X327815833Y-182557200D01*
X327815833Y-182557200D02*
X327911071Y-182604819D01*
X327911071Y-182604819D02*
X328149166Y-182604819D01*
X328149166Y-182604819D02*
X328244404Y-182557200D01*
X328244404Y-182557200D02*
X328292023Y-182509580D01*
X334324404Y-183024819D02*
X334324404Y-182024819D01*
X333752976Y-183024819D02*
X334181547Y-182453390D01*
X333752976Y-182024819D02*
X334324404Y-182596247D01*
X291236785Y-229544819D02*
X291236785Y-228544819D01*
X291236785Y-228544819D02*
X290998690Y-228544819D01*
X290998690Y-228544819D02*
X290855833Y-228592438D01*
X290855833Y-228592438D02*
X290760595Y-228687676D01*
X290760595Y-228687676D02*
X290712976Y-228782914D01*
X290712976Y-228782914D02*
X290665357Y-228973390D01*
X290665357Y-228973390D02*
X290665357Y-229116247D01*
X290665357Y-229116247D02*
X290712976Y-229306723D01*
X290712976Y-229306723D02*
X290760595Y-229401961D01*
X290760595Y-229401961D02*
X290855833Y-229497200D01*
X290855833Y-229497200D02*
X290998690Y-229544819D01*
X290998690Y-229544819D02*
X291236785Y-229544819D01*
X289712976Y-229544819D02*
X290284404Y-229544819D01*
X289998690Y-229544819D02*
X289998690Y-228544819D01*
X289998690Y-228544819D02*
X290093928Y-228687676D01*
X290093928Y-228687676D02*
X290189166Y-228782914D01*
X290189166Y-228782914D02*
X290284404Y-228830533D01*
X288855833Y-228878152D02*
X288855833Y-229544819D01*
X289093928Y-228497200D02*
X289332023Y-229211485D01*
X289332023Y-229211485D02*
X288712976Y-229211485D01*
X295364404Y-229964819D02*
X295364404Y-228964819D01*
X294792976Y-229964819D02*
X295221547Y-229393390D01*
X294792976Y-228964819D02*
X295364404Y-229536247D01*
X113498094Y-229154819D02*
X113498094Y-228154819D01*
X113498094Y-228154819D02*
X113259999Y-228154819D01*
X113259999Y-228154819D02*
X113117142Y-228202438D01*
X113117142Y-228202438D02*
X113021904Y-228297676D01*
X113021904Y-228297676D02*
X112974285Y-228392914D01*
X112974285Y-228392914D02*
X112926666Y-228583390D01*
X112926666Y-228583390D02*
X112926666Y-228726247D01*
X112926666Y-228726247D02*
X112974285Y-228916723D01*
X112974285Y-228916723D02*
X113021904Y-229011961D01*
X113021904Y-229011961D02*
X113117142Y-229107200D01*
X113117142Y-229107200D02*
X113259999Y-229154819D01*
X113259999Y-229154819D02*
X113498094Y-229154819D01*
X112069523Y-228488152D02*
X112069523Y-229154819D01*
X112307618Y-228107200D02*
X112545713Y-228821485D01*
X112545713Y-228821485D02*
X111926666Y-228821485D01*
X118101904Y-229574819D02*
X118101904Y-228574819D01*
X117530476Y-229574819D02*
X117959047Y-229003390D01*
X117530476Y-228574819D02*
X118101904Y-229146247D01*
X323988094Y-201434819D02*
X323988094Y-200434819D01*
X323988094Y-200434819D02*
X323749999Y-200434819D01*
X323749999Y-200434819D02*
X323607142Y-200482438D01*
X323607142Y-200482438D02*
X323511904Y-200577676D01*
X323511904Y-200577676D02*
X323464285Y-200672914D01*
X323464285Y-200672914D02*
X323416666Y-200863390D01*
X323416666Y-200863390D02*
X323416666Y-201006247D01*
X323416666Y-201006247D02*
X323464285Y-201196723D01*
X323464285Y-201196723D02*
X323511904Y-201291961D01*
X323511904Y-201291961D02*
X323607142Y-201387200D01*
X323607142Y-201387200D02*
X323749999Y-201434819D01*
X323749999Y-201434819D02*
X323988094Y-201434819D01*
X322464285Y-201434819D02*
X323035713Y-201434819D01*
X322749999Y-201434819D02*
X322749999Y-200434819D01*
X322749999Y-200434819D02*
X322845237Y-200577676D01*
X322845237Y-200577676D02*
X322940475Y-200672914D01*
X322940475Y-200672914D02*
X323035713Y-200720533D01*
X328591904Y-201854819D02*
X328591904Y-200854819D01*
X328020476Y-201854819D02*
X328449047Y-201283390D01*
X328020476Y-200854819D02*
X328591904Y-201426247D01*
X288235594Y-184924819D02*
X288235594Y-183924819D01*
X288235594Y-183924819D02*
X287997499Y-183924819D01*
X287997499Y-183924819D02*
X287854642Y-183972438D01*
X287854642Y-183972438D02*
X287759404Y-184067676D01*
X287759404Y-184067676D02*
X287711785Y-184162914D01*
X287711785Y-184162914D02*
X287664166Y-184353390D01*
X287664166Y-184353390D02*
X287664166Y-184496247D01*
X287664166Y-184496247D02*
X287711785Y-184686723D01*
X287711785Y-184686723D02*
X287759404Y-184781961D01*
X287759404Y-184781961D02*
X287854642Y-184877200D01*
X287854642Y-184877200D02*
X287997499Y-184924819D01*
X287997499Y-184924819D02*
X288235594Y-184924819D01*
X287187975Y-184924819D02*
X286997499Y-184924819D01*
X286997499Y-184924819D02*
X286902261Y-184877200D01*
X286902261Y-184877200D02*
X286854642Y-184829580D01*
X286854642Y-184829580D02*
X286759404Y-184686723D01*
X286759404Y-184686723D02*
X286711785Y-184496247D01*
X286711785Y-184496247D02*
X286711785Y-184115295D01*
X286711785Y-184115295D02*
X286759404Y-184020057D01*
X286759404Y-184020057D02*
X286807023Y-183972438D01*
X286807023Y-183972438D02*
X286902261Y-183924819D01*
X286902261Y-183924819D02*
X287092737Y-183924819D01*
X287092737Y-183924819D02*
X287187975Y-183972438D01*
X287187975Y-183972438D02*
X287235594Y-184020057D01*
X287235594Y-184020057D02*
X287283213Y-184115295D01*
X287283213Y-184115295D02*
X287283213Y-184353390D01*
X287283213Y-184353390D02*
X287235594Y-184448628D01*
X287235594Y-184448628D02*
X287187975Y-184496247D01*
X287187975Y-184496247D02*
X287092737Y-184543866D01*
X287092737Y-184543866D02*
X286902261Y-184543866D01*
X286902261Y-184543866D02*
X286807023Y-184496247D01*
X286807023Y-184496247D02*
X286759404Y-184448628D01*
X286759404Y-184448628D02*
X286711785Y-184353390D01*
X292839404Y-185344819D02*
X292839404Y-184344819D01*
X292267976Y-185344819D02*
X292696547Y-184773390D01*
X292267976Y-184344819D02*
X292839404Y-184916247D01*
X144978094Y-215494819D02*
X144978094Y-214494819D01*
X144978094Y-214494819D02*
X144739999Y-214494819D01*
X144739999Y-214494819D02*
X144597142Y-214542438D01*
X144597142Y-214542438D02*
X144501904Y-214637676D01*
X144501904Y-214637676D02*
X144454285Y-214732914D01*
X144454285Y-214732914D02*
X144406666Y-214923390D01*
X144406666Y-214923390D02*
X144406666Y-215066247D01*
X144406666Y-215066247D02*
X144454285Y-215256723D01*
X144454285Y-215256723D02*
X144501904Y-215351961D01*
X144501904Y-215351961D02*
X144597142Y-215447200D01*
X144597142Y-215447200D02*
X144739999Y-215494819D01*
X144739999Y-215494819D02*
X144978094Y-215494819D01*
X144025713Y-214590057D02*
X143978094Y-214542438D01*
X143978094Y-214542438D02*
X143882856Y-214494819D01*
X143882856Y-214494819D02*
X143644761Y-214494819D01*
X143644761Y-214494819D02*
X143549523Y-214542438D01*
X143549523Y-214542438D02*
X143501904Y-214590057D01*
X143501904Y-214590057D02*
X143454285Y-214685295D01*
X143454285Y-214685295D02*
X143454285Y-214780533D01*
X143454285Y-214780533D02*
X143501904Y-214923390D01*
X143501904Y-214923390D02*
X144073332Y-215494819D01*
X144073332Y-215494819D02*
X143454285Y-215494819D01*
X149581904Y-215914819D02*
X149581904Y-214914819D01*
X149010476Y-215914819D02*
X149439047Y-215343390D01*
X149010476Y-214914819D02*
X149581904Y-215486247D01*
X279273688Y-227964819D02*
X279273688Y-226964819D01*
X279273688Y-226964819D02*
X279035593Y-226964819D01*
X279035593Y-226964819D02*
X278892736Y-227012438D01*
X278892736Y-227012438D02*
X278797498Y-227107676D01*
X278797498Y-227107676D02*
X278749879Y-227202914D01*
X278749879Y-227202914D02*
X278702260Y-227393390D01*
X278702260Y-227393390D02*
X278702260Y-227536247D01*
X278702260Y-227536247D02*
X278749879Y-227726723D01*
X278749879Y-227726723D02*
X278797498Y-227821961D01*
X278797498Y-227821961D02*
X278892736Y-227917200D01*
X278892736Y-227917200D02*
X279035593Y-227964819D01*
X279035593Y-227964819D02*
X279273688Y-227964819D01*
X277797498Y-226964819D02*
X278273688Y-226964819D01*
X278273688Y-226964819D02*
X278321307Y-227441009D01*
X278321307Y-227441009D02*
X278273688Y-227393390D01*
X278273688Y-227393390D02*
X278178450Y-227345771D01*
X278178450Y-227345771D02*
X277940355Y-227345771D01*
X277940355Y-227345771D02*
X277845117Y-227393390D01*
X277845117Y-227393390D02*
X277797498Y-227441009D01*
X277797498Y-227441009D02*
X277749879Y-227536247D01*
X277749879Y-227536247D02*
X277749879Y-227774342D01*
X277749879Y-227774342D02*
X277797498Y-227869580D01*
X277797498Y-227869580D02*
X277845117Y-227917200D01*
X277845117Y-227917200D02*
X277940355Y-227964819D01*
X277940355Y-227964819D02*
X278178450Y-227964819D01*
X278178450Y-227964819D02*
X278273688Y-227917200D01*
X278273688Y-227917200D02*
X278321307Y-227869580D01*
X283877498Y-228384819D02*
X283877498Y-227384819D01*
X283306070Y-228384819D02*
X283734641Y-227813390D01*
X283306070Y-227384819D02*
X283877498Y-227956247D01*
%TO.C,D12*%
D11*
X251637500Y-238410000D02*
X253757500Y-238410000D01*
X256477500Y-236990000D02*
X256477500Y-239830000D01*
X256597500Y-236990000D02*
X256597500Y-239830000D01*
X256717500Y-236990000D02*
X256717500Y-239830000D01*
X259317500Y-238410000D02*
X257197500Y-238410000D01*
X253757500Y-236990000D02*
X257197500Y-236990000D01*
X257197500Y-239830000D01*
X253757500Y-239830000D01*
X253757500Y-236990000D01*
%TO.C,D11*%
X222330000Y-202020000D02*
X224450000Y-202020000D01*
X227170000Y-200600000D02*
X227170000Y-203440000D01*
X227290000Y-200600000D02*
X227290000Y-203440000D01*
X227410000Y-200600000D02*
X227410000Y-203440000D01*
X230010000Y-202020000D02*
X227890000Y-202020000D01*
X224450000Y-200600000D02*
X227890000Y-200600000D01*
X227890000Y-203440000D01*
X224450000Y-203440000D01*
X224450000Y-200600000D01*
%TO.C,D8*%
X180950000Y-214440000D02*
X183070000Y-214440000D01*
X185790000Y-213020000D02*
X185790000Y-215860000D01*
X185910000Y-213020000D02*
X185910000Y-215860000D01*
X186030000Y-213020000D02*
X186030000Y-215860000D01*
X188630000Y-214440000D02*
X186510000Y-214440000D01*
X183070000Y-213020000D02*
X186510000Y-213020000D01*
X186510000Y-215860000D01*
X183070000Y-215860000D01*
X183070000Y-213020000D01*
%TO.C,D7*%
X186600000Y-230600000D02*
X188720000Y-230600000D01*
X191440000Y-229180000D02*
X191440000Y-232020000D01*
X191560000Y-229180000D02*
X191560000Y-232020000D01*
X191680000Y-229180000D02*
X191680000Y-232020000D01*
X194280000Y-230600000D02*
X192160000Y-230600000D01*
X188720000Y-229180000D02*
X192160000Y-229180000D01*
X192160000Y-232020000D01*
X188720000Y-232020000D01*
X188720000Y-229180000D01*
%TO.C,D13*%
X290792500Y-198050000D02*
X292912500Y-198050000D01*
X295632500Y-196630000D02*
X295632500Y-199470000D01*
X295752500Y-196630000D02*
X295752500Y-199470000D01*
X295872500Y-196630000D02*
X295872500Y-199470000D01*
X298472500Y-198050000D02*
X296352500Y-198050000D01*
X292912500Y-196630000D02*
X296352500Y-196630000D01*
X296352500Y-199470000D01*
X292912500Y-199470000D01*
X292912500Y-196630000D01*
%TO.C,D3*%
X102835000Y-189850000D02*
X104955000Y-189850000D01*
X107675000Y-188430000D02*
X107675000Y-191270000D01*
X107795000Y-188430000D02*
X107795000Y-191270000D01*
X107915000Y-188430000D02*
X107915000Y-191270000D01*
X110515000Y-189850000D02*
X108395000Y-189850000D01*
X104955000Y-188430000D02*
X108395000Y-188430000D01*
X108395000Y-191270000D01*
X104955000Y-191270000D01*
X104955000Y-188430000D01*
%TO.C,D6*%
X185570000Y-203780000D02*
X187690000Y-203780000D01*
X190410000Y-202360000D02*
X190410000Y-205200000D01*
X190530000Y-202360000D02*
X190530000Y-205200000D01*
X190650000Y-202360000D02*
X190650000Y-205200000D01*
X193250000Y-203780000D02*
X191130000Y-203780000D01*
X187690000Y-202360000D02*
X191130000Y-202360000D01*
X191130000Y-205200000D01*
X187690000Y-205200000D01*
X187690000Y-202360000D01*
%TO.C,D16*%
D12*
X333657500Y-234660000D02*
G75*
G02*
X333557500Y-234660000I-50000J0D01*
G01*
X333557500Y-234660000D02*
G75*
G02*
X333657500Y-234660000I50000J0D01*
G01*
%TO.C,D10*%
D11*
X286122500Y-235320000D02*
X288242500Y-235320000D01*
X290962500Y-233900000D02*
X290962500Y-236740000D01*
X291082500Y-233900000D02*
X291082500Y-236740000D01*
X291202500Y-233900000D02*
X291202500Y-236740000D01*
X293802500Y-235320000D02*
X291682500Y-235320000D01*
X288242500Y-233900000D02*
X291682500Y-233900000D01*
X291682500Y-236740000D01*
X288242500Y-236740000D01*
X288242500Y-233900000D01*
%TO.C,D15*%
X325142500Y-184570000D02*
X327262500Y-184570000D01*
X329982500Y-183150000D02*
X329982500Y-185990000D01*
X330102500Y-183150000D02*
X330102500Y-185990000D01*
X330222500Y-183150000D02*
X330222500Y-185990000D01*
X332822500Y-184570000D02*
X330702500Y-184570000D01*
X327262500Y-183150000D02*
X330702500Y-183150000D01*
X330702500Y-185990000D01*
X327262500Y-185990000D01*
X327262500Y-183150000D01*
%TO.C,D14*%
X286182500Y-231510000D02*
X288302500Y-231510000D01*
X291022500Y-230090000D02*
X291022500Y-232930000D01*
X291142500Y-230090000D02*
X291142500Y-232930000D01*
X291262500Y-230090000D02*
X291262500Y-232930000D01*
X293862500Y-231510000D02*
X291742500Y-231510000D01*
X288302500Y-230090000D02*
X291742500Y-230090000D01*
X291742500Y-232930000D01*
X288302500Y-232930000D01*
X288302500Y-230090000D01*
%TO.C,D4*%
X108920000Y-231120000D02*
X111040000Y-231120000D01*
X113760000Y-229700000D02*
X113760000Y-232540000D01*
X113880000Y-229700000D02*
X113880000Y-232540000D01*
X114000000Y-229700000D02*
X114000000Y-232540000D01*
X116600000Y-231120000D02*
X114480000Y-231120000D01*
X111040000Y-229700000D02*
X114480000Y-229700000D01*
X114480000Y-232540000D01*
X111040000Y-232540000D01*
X111040000Y-229700000D01*
%TO.C,D1*%
X319410000Y-203400000D02*
X321530000Y-203400000D01*
X324250000Y-201980000D02*
X324250000Y-204820000D01*
X324370000Y-201980000D02*
X324370000Y-204820000D01*
X324490000Y-201980000D02*
X324490000Y-204820000D01*
X327090000Y-203400000D02*
X324970000Y-203400000D01*
X321530000Y-201980000D02*
X324970000Y-201980000D01*
X324970000Y-204820000D01*
X321530000Y-204820000D01*
X321530000Y-201980000D01*
%TO.C,D9*%
X283657500Y-186890000D02*
X285777500Y-186890000D01*
X288497500Y-185470000D02*
X288497500Y-188310000D01*
X288617500Y-185470000D02*
X288617500Y-188310000D01*
X288737500Y-185470000D02*
X288737500Y-188310000D01*
X291337500Y-186890000D02*
X289217500Y-186890000D01*
X285777500Y-185470000D02*
X289217500Y-185470000D01*
X289217500Y-188310000D01*
X285777500Y-188310000D01*
X285777500Y-185470000D01*
%TO.C,D2*%
X140400000Y-217460000D02*
X142520000Y-217460000D01*
X145240000Y-216040000D02*
X145240000Y-218880000D01*
X145360000Y-216040000D02*
X145360000Y-218880000D01*
X145480000Y-216040000D02*
X145480000Y-218880000D01*
X148080000Y-217460000D02*
X145960000Y-217460000D01*
X142520000Y-216040000D02*
X145960000Y-216040000D01*
X145960000Y-218880000D01*
X142520000Y-218880000D01*
X142520000Y-216040000D01*
%TO.C,D5*%
X274695594Y-229930000D02*
X276815594Y-229930000D01*
X279535594Y-228510000D02*
X279535594Y-231350000D01*
X279655594Y-228510000D02*
X279655594Y-231350000D01*
X279775594Y-228510000D02*
X279775594Y-231350000D01*
X282375594Y-229930000D02*
X280255594Y-229930000D01*
X276815594Y-228510000D02*
X280255594Y-228510000D01*
X280255594Y-231350000D01*
X276815594Y-231350000D01*
X276815594Y-228510000D01*
%TD*%
M02*
