M48
; DRILL file {KiCad 9.0.6} date 2026-03-28T18:36:45-0500
; FORMAT={-:-/ absolute / metric / decimal}
; #@! TF.CreationDate,2026-03-28T18:36:45-05:00
; #@! TF.GenerationSoftware,Kicad,Pcbnew,9.0.6
; #@! TF.FileFunction,Plated,1,2,PTH
FMAT,2
METRIC
; #@! TA.AperFunction,Plated,PTH,ViaDrill
T1C0.300
; #@! TA.AperFunction,Plated,PTH,ComponentDrill
T2C0.700
; #@! TA.AperFunction,Plated,PTH,ComponentDrill
T3C0.900
; #@! TA.AperFunction,Plated,PTH,ComponentDrill
T4C1.000
; #@! TA.AperFunction,Plated,PTH,ComponentDrill
T5C1.500
%
G90
G05
T1
X85.02Y-207.89
X86.97Y-153.61
X104.63Y-190.46
X104.69Y-189.14
X104.81Y-153.72
X105.67Y-209.91
X106.76Y-152.59
X108.24Y-126.63
X108.7Y-142.72
X109.205Y-243.015
X110.32Y-159.72
X113.32Y-155.71
X115.43Y-150.97
X117.001Y-174.8
X118.43Y-156.39
X119.47Y-154.12
X121.04Y-166.86
X121.82Y-130.63
X121.88Y-161.12
X125.55Y-152.87
X126.52Y-167.88
X130.675Y-154.065
X132.871Y-128.66
X135.75Y-130.37
X136.57Y-152.31
X138.88Y-132.52
X140.06Y-154.92
X141.77Y-162.68
X153.96Y-147.43
X155.015Y-224.005
X156.14Y-153.29
X160.07Y-145.19
X163.33Y-215.32
X163.56Y-150.88
X169.36Y-151.15
X174.37Y-147.18
X176.3Y-202.97
X177.22Y-150.51
X179.34Y-139.09
X181.25Y-147.85
X186.08Y-150.43
X202.245Y-214.065
X204.63Y-216.5
X204.98Y-242.81
X205.06Y-156.35
X214.3Y-166.05
X225.54Y-191.35
X227.21Y-167.77
X227.68Y-155.44
X236.71Y-219.9
X239.115Y-172.395
X239.63Y-209.7
X246.4Y-140.99
X257.1Y-132.87
X257.53Y-195.5
X257.68Y-129.81
X258.27Y-150.1
X258.56Y-240.17
X261.03Y-127.05
X261.88Y-130.03
X261.95Y-139.54
X262.27Y-128.4
X262.49Y-210.28
X262.585Y-224.435
X263.93Y-136.58
X267.93Y-217.84
X270.86Y-135.7
X271.37Y-137.63
X275.53Y-204.22
X281.32Y-233.34
X294.03Y-187.57
X296.09Y-186.69
X302.03Y-206.76
X303.87Y-196.36
X305.2Y-216.33
X311.34Y-214.74
X329.99Y-185.19
X332.41Y-231.37
T2
X151.15Y-141.63
X151.3Y-135.38
X156.23Y-141.63
X156.38Y-135.38
X160.12Y-135.18
X160.25Y-141.7
X165.2Y-135.18
X165.33Y-141.7
X169.52Y-141.83
X171.4Y-135.11
X174.6Y-141.83
X176.48Y-135.11
X178.62Y-141.9
X181.52Y-135.22
X183.7Y-141.9
X186.6Y-135.22
X187.89Y-142.23
X191.84Y-135.13
X192.97Y-142.23
X196.92Y-135.13
T3
X91.66Y-207.7
X94.2Y-207.7
X130.91Y-208.17
X133.45Y-208.17
X169.84Y-208.825
X172.38Y-208.825
X208.56Y-209.075
X211.1Y-209.075
X243.8Y-210.05
X246.34Y-210.05
X272.69Y-147.615
X275.23Y-147.615
X277.05Y-210.445
X279.59Y-210.445
X280.35Y-147.615
X282.89Y-147.615
X313.57Y-211.735
X316.11Y-211.735
X347.38Y-210.945
X349.92Y-210.945
T4
X82.43Y-130.01
X82.43Y-147.79
X84.97Y-130.01
X84.97Y-147.79
X87.51Y-130.01
X87.51Y-147.79
X90.05Y-130.01
X90.05Y-147.79
X92.59Y-130.01
X92.59Y-147.79
X95.13Y-130.01
X95.13Y-147.79
X97.67Y-130.01
X97.67Y-147.79
X100.21Y-130.01
X100.21Y-147.79
X102.75Y-130.01
X102.75Y-147.79
X105.29Y-130.01
X105.29Y-147.79
X107.83Y-130.01
X107.83Y-147.79
X110.37Y-130.01
X110.37Y-147.79
X112.91Y-130.01
X112.91Y-147.79
X115.45Y-130.01
X115.45Y-147.79
X117.99Y-130.01
X117.99Y-147.79
X120.53Y-130.01
X120.53Y-147.79
X123.07Y-130.01
X123.07Y-147.79
X125.61Y-130.01
X125.61Y-147.79
X128.15Y-130.01
X128.15Y-147.79
X130.69Y-130.01
X130.69Y-147.79
X272.01Y-160.53
X272.01Y-163.03
X272.01Y-165.53
X286.51Y-160.53
X286.51Y-165.53
T5
X89.93Y-226.13
X90.64Y-188.31
X96.28Y-223.59
X96.99Y-185.77
X128.51Y-226.37
X128.99Y-188.77
X134.86Y-223.83
X135.34Y-186.23
X167.56Y-225.89
X167.83Y-188.26
X173.91Y-223.35
X174.18Y-185.72
X206.23Y-188.0
X206.7Y-227.56
X212.58Y-185.46
X213.05Y-225.02
X241.8Y-189.04
X242.11Y-228.26
X248.15Y-186.5
X248.46Y-225.72
X274.69Y-229.51
X274.74Y-189.36
X281.04Y-226.97
X281.09Y-186.82
X310.6Y-230.44
X311.67Y-188.23
X316.95Y-227.9
X318.02Y-185.69
X344.06Y-188.1
X344.59Y-230.85
X350.41Y-185.56
X350.94Y-228.31
T5
G00X278.86Y-157.43
M15
G01X280.16Y-157.43
M16
G05
G00X278.86Y-168.63
M15
G01X280.16Y-168.63
M16
G05
M30
