%TF.GenerationSoftware,KiCad,Pcbnew,9.0.6*%
%TF.CreationDate,2026-03-28T18:36:47-05:00*%
%TF.ProjectId,learnboard,6c656172-6e62-46f6-9172-642e6b696361,rev?*%
%TF.SameCoordinates,Original*%
%TF.FileFunction,Legend,Bot*%
%TF.FilePolarity,Positive*%
%FSLAX46Y46*%
G04 Gerber Fmt 4.6, Leading zero omitted, Abs format (unit mm)*
G04 Created by KiCad (PCBNEW 9.0.6) date 2026-03-28 18:36:47*
%MOMM*%
%LPD*%
G01*
G04 APERTURE LIST*
%ADD10C,0.150000*%
%ADD11C,0.100000*%
G04 APERTURE END LIST*
D10*
X261771785Y-237814819D02*
X261771785Y-236814819D01*
X261771785Y-236814819D02*
X261533690Y-236814819D01*
X261533690Y-236814819D02*
X261390833Y-236862438D01*
X261390833Y-236862438D02*
X261295595Y-236957676D01*
X261295595Y-236957676D02*
X261247976Y-237052914D01*
X261247976Y-237052914D02*
X261200357Y-237243390D01*
X261200357Y-237243390D02*
X261200357Y-237386247D01*
X261200357Y-237386247D02*
X261247976Y-237576723D01*
X261247976Y-237576723D02*
X261295595Y-237671961D01*
X261295595Y-237671961D02*
X261390833Y-237767200D01*
X261390833Y-237767200D02*
X261533690Y-237814819D01*
X261533690Y-237814819D02*
X261771785Y-237814819D01*
X260247976Y-237814819D02*
X260819404Y-237814819D01*
X260533690Y-237814819D02*
X260533690Y-236814819D01*
X260533690Y-236814819D02*
X260628928Y-236957676D01*
X260628928Y-236957676D02*
X260724166Y-237052914D01*
X260724166Y-237052914D02*
X260819404Y-237100533D01*
X259867023Y-236910057D02*
X259819404Y-236862438D01*
X259819404Y-236862438D02*
X259724166Y-236814819D01*
X259724166Y-236814819D02*
X259486071Y-236814819D01*
X259486071Y-236814819D02*
X259390833Y-236862438D01*
X259390833Y-236862438D02*
X259343214Y-236910057D01*
X259343214Y-236910057D02*
X259295595Y-237005295D01*
X259295595Y-237005295D02*
X259295595Y-237100533D01*
X259295595Y-237100533D02*
X259343214Y-237243390D01*
X259343214Y-237243390D02*
X259914642Y-237814819D01*
X259914642Y-237814819D02*
X259295595Y-237814819D01*
X227244285Y-193004819D02*
X227244285Y-192004819D01*
X227244285Y-192004819D02*
X227006190Y-192004819D01*
X227006190Y-192004819D02*
X226863333Y-192052438D01*
X226863333Y-192052438D02*
X226768095Y-192147676D01*
X226768095Y-192147676D02*
X226720476Y-192242914D01*
X226720476Y-192242914D02*
X226672857Y-192433390D01*
X226672857Y-192433390D02*
X226672857Y-192576247D01*
X226672857Y-192576247D02*
X226720476Y-192766723D01*
X226720476Y-192766723D02*
X226768095Y-192861961D01*
X226768095Y-192861961D02*
X226863333Y-192957200D01*
X226863333Y-192957200D02*
X227006190Y-193004819D01*
X227006190Y-193004819D02*
X227244285Y-193004819D01*
X225720476Y-193004819D02*
X226291904Y-193004819D01*
X226006190Y-193004819D02*
X226006190Y-192004819D01*
X226006190Y-192004819D02*
X226101428Y-192147676D01*
X226101428Y-192147676D02*
X226196666Y-192242914D01*
X226196666Y-192242914D02*
X226291904Y-192290533D01*
X224768095Y-193004819D02*
X225339523Y-193004819D01*
X225053809Y-193004819D02*
X225053809Y-192004819D01*
X225053809Y-192004819D02*
X225149047Y-192147676D01*
X225149047Y-192147676D02*
X225244285Y-192242914D01*
X225244285Y-192242914D02*
X225339523Y-192290533D01*
X180520594Y-210484819D02*
X180520594Y-209484819D01*
X180520594Y-209484819D02*
X180282499Y-209484819D01*
X180282499Y-209484819D02*
X180139642Y-209532438D01*
X180139642Y-209532438D02*
X180044404Y-209627676D01*
X180044404Y-209627676D02*
X179996785Y-209722914D01*
X179996785Y-209722914D02*
X179949166Y-209913390D01*
X179949166Y-209913390D02*
X179949166Y-210056247D01*
X179949166Y-210056247D02*
X179996785Y-210246723D01*
X179996785Y-210246723D02*
X180044404Y-210341961D01*
X180044404Y-210341961D02*
X180139642Y-210437200D01*
X180139642Y-210437200D02*
X180282499Y-210484819D01*
X180282499Y-210484819D02*
X180520594Y-210484819D01*
X179377737Y-209913390D02*
X179472975Y-209865771D01*
X179472975Y-209865771D02*
X179520594Y-209818152D01*
X179520594Y-209818152D02*
X179568213Y-209722914D01*
X179568213Y-209722914D02*
X179568213Y-209675295D01*
X179568213Y-209675295D02*
X179520594Y-209580057D01*
X179520594Y-209580057D02*
X179472975Y-209532438D01*
X179472975Y-209532438D02*
X179377737Y-209484819D01*
X179377737Y-209484819D02*
X179187261Y-209484819D01*
X179187261Y-209484819D02*
X179092023Y-209532438D01*
X179092023Y-209532438D02*
X179044404Y-209580057D01*
X179044404Y-209580057D02*
X178996785Y-209675295D01*
X178996785Y-209675295D02*
X178996785Y-209722914D01*
X178996785Y-209722914D02*
X179044404Y-209818152D01*
X179044404Y-209818152D02*
X179092023Y-209865771D01*
X179092023Y-209865771D02*
X179187261Y-209913390D01*
X179187261Y-209913390D02*
X179377737Y-209913390D01*
X179377737Y-209913390D02*
X179472975Y-209961009D01*
X179472975Y-209961009D02*
X179520594Y-210008628D01*
X179520594Y-210008628D02*
X179568213Y-210103866D01*
X179568213Y-210103866D02*
X179568213Y-210294342D01*
X179568213Y-210294342D02*
X179520594Y-210389580D01*
X179520594Y-210389580D02*
X179472975Y-210437200D01*
X179472975Y-210437200D02*
X179377737Y-210484819D01*
X179377737Y-210484819D02*
X179187261Y-210484819D01*
X179187261Y-210484819D02*
X179092023Y-210437200D01*
X179092023Y-210437200D02*
X179044404Y-210389580D01*
X179044404Y-210389580D02*
X178996785Y-210294342D01*
X178996785Y-210294342D02*
X178996785Y-210103866D01*
X178996785Y-210103866D02*
X179044404Y-210008628D01*
X179044404Y-210008628D02*
X179092023Y-209961009D01*
X179092023Y-209961009D02*
X179187261Y-209913390D01*
X193140594Y-233634819D02*
X193140594Y-232634819D01*
X193140594Y-232634819D02*
X192902499Y-232634819D01*
X192902499Y-232634819D02*
X192759642Y-232682438D01*
X192759642Y-232682438D02*
X192664404Y-232777676D01*
X192664404Y-232777676D02*
X192616785Y-232872914D01*
X192616785Y-232872914D02*
X192569166Y-233063390D01*
X192569166Y-233063390D02*
X192569166Y-233206247D01*
X192569166Y-233206247D02*
X192616785Y-233396723D01*
X192616785Y-233396723D02*
X192664404Y-233491961D01*
X192664404Y-233491961D02*
X192759642Y-233587200D01*
X192759642Y-233587200D02*
X192902499Y-233634819D01*
X192902499Y-233634819D02*
X193140594Y-233634819D01*
X192235832Y-232634819D02*
X191569166Y-232634819D01*
X191569166Y-232634819D02*
X191997737Y-233634819D01*
X300926785Y-197454819D02*
X300926785Y-196454819D01*
X300926785Y-196454819D02*
X300688690Y-196454819D01*
X300688690Y-196454819D02*
X300545833Y-196502438D01*
X300545833Y-196502438D02*
X300450595Y-196597676D01*
X300450595Y-196597676D02*
X300402976Y-196692914D01*
X300402976Y-196692914D02*
X300355357Y-196883390D01*
X300355357Y-196883390D02*
X300355357Y-197026247D01*
X300355357Y-197026247D02*
X300402976Y-197216723D01*
X300402976Y-197216723D02*
X300450595Y-197311961D01*
X300450595Y-197311961D02*
X300545833Y-197407200D01*
X300545833Y-197407200D02*
X300688690Y-197454819D01*
X300688690Y-197454819D02*
X300926785Y-197454819D01*
X299402976Y-197454819D02*
X299974404Y-197454819D01*
X299688690Y-197454819D02*
X299688690Y-196454819D01*
X299688690Y-196454819D02*
X299783928Y-196597676D01*
X299783928Y-196597676D02*
X299879166Y-196692914D01*
X299879166Y-196692914D02*
X299974404Y-196740533D01*
X299069642Y-196454819D02*
X298450595Y-196454819D01*
X298450595Y-196454819D02*
X298783928Y-196835771D01*
X298783928Y-196835771D02*
X298641071Y-196835771D01*
X298641071Y-196835771D02*
X298545833Y-196883390D01*
X298545833Y-196883390D02*
X298498214Y-196931009D01*
X298498214Y-196931009D02*
X298450595Y-197026247D01*
X298450595Y-197026247D02*
X298450595Y-197264342D01*
X298450595Y-197264342D02*
X298498214Y-197359580D01*
X298498214Y-197359580D02*
X298545833Y-197407200D01*
X298545833Y-197407200D02*
X298641071Y-197454819D01*
X298641071Y-197454819D02*
X298926785Y-197454819D01*
X298926785Y-197454819D02*
X299022023Y-197407200D01*
X299022023Y-197407200D02*
X299069642Y-197359580D01*
X112493094Y-189254819D02*
X112493094Y-188254819D01*
X112493094Y-188254819D02*
X112254999Y-188254819D01*
X112254999Y-188254819D02*
X112112142Y-188302438D01*
X112112142Y-188302438D02*
X112016904Y-188397676D01*
X112016904Y-188397676D02*
X111969285Y-188492914D01*
X111969285Y-188492914D02*
X111921666Y-188683390D01*
X111921666Y-188683390D02*
X111921666Y-188826247D01*
X111921666Y-188826247D02*
X111969285Y-189016723D01*
X111969285Y-189016723D02*
X112016904Y-189111961D01*
X112016904Y-189111961D02*
X112112142Y-189207200D01*
X112112142Y-189207200D02*
X112254999Y-189254819D01*
X112254999Y-189254819D02*
X112493094Y-189254819D01*
X111588332Y-188254819D02*
X110969285Y-188254819D01*
X110969285Y-188254819D02*
X111302618Y-188635771D01*
X111302618Y-188635771D02*
X111159761Y-188635771D01*
X111159761Y-188635771D02*
X111064523Y-188683390D01*
X111064523Y-188683390D02*
X111016904Y-188731009D01*
X111016904Y-188731009D02*
X110969285Y-188826247D01*
X110969285Y-188826247D02*
X110969285Y-189064342D01*
X110969285Y-189064342D02*
X111016904Y-189159580D01*
X111016904Y-189159580D02*
X111064523Y-189207200D01*
X111064523Y-189207200D02*
X111159761Y-189254819D01*
X111159761Y-189254819D02*
X111445475Y-189254819D01*
X111445475Y-189254819D02*
X111540713Y-189207200D01*
X111540713Y-189207200D02*
X111588332Y-189159580D01*
X204850594Y-207794819D02*
X204850594Y-206794819D01*
X204850594Y-206794819D02*
X204612499Y-206794819D01*
X204612499Y-206794819D02*
X204469642Y-206842438D01*
X204469642Y-206842438D02*
X204374404Y-206937676D01*
X204374404Y-206937676D02*
X204326785Y-207032914D01*
X204326785Y-207032914D02*
X204279166Y-207223390D01*
X204279166Y-207223390D02*
X204279166Y-207366247D01*
X204279166Y-207366247D02*
X204326785Y-207556723D01*
X204326785Y-207556723D02*
X204374404Y-207651961D01*
X204374404Y-207651961D02*
X204469642Y-207747200D01*
X204469642Y-207747200D02*
X204612499Y-207794819D01*
X204612499Y-207794819D02*
X204850594Y-207794819D01*
X203422023Y-206794819D02*
X203612499Y-206794819D01*
X203612499Y-206794819D02*
X203707737Y-206842438D01*
X203707737Y-206842438D02*
X203755356Y-206890057D01*
X203755356Y-206890057D02*
X203850594Y-207032914D01*
X203850594Y-207032914D02*
X203898213Y-207223390D01*
X203898213Y-207223390D02*
X203898213Y-207604342D01*
X203898213Y-207604342D02*
X203850594Y-207699580D01*
X203850594Y-207699580D02*
X203802975Y-207747200D01*
X203802975Y-207747200D02*
X203707737Y-207794819D01*
X203707737Y-207794819D02*
X203517261Y-207794819D01*
X203517261Y-207794819D02*
X203422023Y-207747200D01*
X203422023Y-207747200D02*
X203374404Y-207699580D01*
X203374404Y-207699580D02*
X203326785Y-207604342D01*
X203326785Y-207604342D02*
X203326785Y-207366247D01*
X203326785Y-207366247D02*
X203374404Y-207271009D01*
X203374404Y-207271009D02*
X203422023Y-207223390D01*
X203422023Y-207223390D02*
X203517261Y-207175771D01*
X203517261Y-207175771D02*
X203707737Y-207175771D01*
X203707737Y-207175771D02*
X203802975Y-207223390D01*
X203802975Y-207223390D02*
X203850594Y-207271009D01*
X203850594Y-207271009D02*
X203898213Y-207366247D01*
X333961785Y-234064819D02*
X333961785Y-233064819D01*
X333961785Y-233064819D02*
X333723690Y-233064819D01*
X333723690Y-233064819D02*
X333580833Y-233112438D01*
X333580833Y-233112438D02*
X333485595Y-233207676D01*
X333485595Y-233207676D02*
X333437976Y-233302914D01*
X333437976Y-233302914D02*
X333390357Y-233493390D01*
X333390357Y-233493390D02*
X333390357Y-233636247D01*
X333390357Y-233636247D02*
X333437976Y-233826723D01*
X333437976Y-233826723D02*
X333485595Y-233921961D01*
X333485595Y-233921961D02*
X333580833Y-234017200D01*
X333580833Y-234017200D02*
X333723690Y-234064819D01*
X333723690Y-234064819D02*
X333961785Y-234064819D01*
X332437976Y-234064819D02*
X333009404Y-234064819D01*
X332723690Y-234064819D02*
X332723690Y-233064819D01*
X332723690Y-233064819D02*
X332818928Y-233207676D01*
X332818928Y-233207676D02*
X332914166Y-233302914D01*
X332914166Y-233302914D02*
X333009404Y-233350533D01*
X331580833Y-233064819D02*
X331771309Y-233064819D01*
X331771309Y-233064819D02*
X331866547Y-233112438D01*
X331866547Y-233112438D02*
X331914166Y-233160057D01*
X331914166Y-233160057D02*
X332009404Y-233302914D01*
X332009404Y-233302914D02*
X332057023Y-233493390D01*
X332057023Y-233493390D02*
X332057023Y-233874342D01*
X332057023Y-233874342D02*
X332009404Y-233969580D01*
X332009404Y-233969580D02*
X331961785Y-234017200D01*
X331961785Y-234017200D02*
X331866547Y-234064819D01*
X331866547Y-234064819D02*
X331676071Y-234064819D01*
X331676071Y-234064819D02*
X331580833Y-234017200D01*
X331580833Y-234017200D02*
X331533214Y-233969580D01*
X331533214Y-233969580D02*
X331485595Y-233874342D01*
X331485595Y-233874342D02*
X331485595Y-233636247D01*
X331485595Y-233636247D02*
X331533214Y-233541009D01*
X331533214Y-233541009D02*
X331580833Y-233493390D01*
X331580833Y-233493390D02*
X331676071Y-233445771D01*
X331676071Y-233445771D02*
X331866547Y-233445771D01*
X331866547Y-233445771D02*
X331961785Y-233493390D01*
X331961785Y-233493390D02*
X332009404Y-233541009D01*
X332009404Y-233541009D02*
X332057023Y-233636247D01*
X296256785Y-234724819D02*
X296256785Y-233724819D01*
X296256785Y-233724819D02*
X296018690Y-233724819D01*
X296018690Y-233724819D02*
X295875833Y-233772438D01*
X295875833Y-233772438D02*
X295780595Y-233867676D01*
X295780595Y-233867676D02*
X295732976Y-233962914D01*
X295732976Y-233962914D02*
X295685357Y-234153390D01*
X295685357Y-234153390D02*
X295685357Y-234296247D01*
X295685357Y-234296247D02*
X295732976Y-234486723D01*
X295732976Y-234486723D02*
X295780595Y-234581961D01*
X295780595Y-234581961D02*
X295875833Y-234677200D01*
X295875833Y-234677200D02*
X296018690Y-234724819D01*
X296018690Y-234724819D02*
X296256785Y-234724819D01*
X294732976Y-234724819D02*
X295304404Y-234724819D01*
X295018690Y-234724819D02*
X295018690Y-233724819D01*
X295018690Y-233724819D02*
X295113928Y-233867676D01*
X295113928Y-233867676D02*
X295209166Y-233962914D01*
X295209166Y-233962914D02*
X295304404Y-234010533D01*
X294113928Y-233724819D02*
X294018690Y-233724819D01*
X294018690Y-233724819D02*
X293923452Y-233772438D01*
X293923452Y-233772438D02*
X293875833Y-233820057D01*
X293875833Y-233820057D02*
X293828214Y-233915295D01*
X293828214Y-233915295D02*
X293780595Y-234105771D01*
X293780595Y-234105771D02*
X293780595Y-234343866D01*
X293780595Y-234343866D02*
X293828214Y-234534342D01*
X293828214Y-234534342D02*
X293875833Y-234629580D01*
X293875833Y-234629580D02*
X293923452Y-234677200D01*
X293923452Y-234677200D02*
X294018690Y-234724819D01*
X294018690Y-234724819D02*
X294113928Y-234724819D01*
X294113928Y-234724819D02*
X294209166Y-234677200D01*
X294209166Y-234677200D02*
X294256785Y-234629580D01*
X294256785Y-234629580D02*
X294304404Y-234534342D01*
X294304404Y-234534342D02*
X294352023Y-234343866D01*
X294352023Y-234343866D02*
X294352023Y-234105771D01*
X294352023Y-234105771D02*
X294304404Y-233915295D01*
X294304404Y-233915295D02*
X294256785Y-233820057D01*
X294256785Y-233820057D02*
X294209166Y-233772438D01*
X294209166Y-233772438D02*
X294113928Y-233724819D01*
X335276785Y-183974819D02*
X335276785Y-182974819D01*
X335276785Y-182974819D02*
X335038690Y-182974819D01*
X335038690Y-182974819D02*
X334895833Y-183022438D01*
X334895833Y-183022438D02*
X334800595Y-183117676D01*
X334800595Y-183117676D02*
X334752976Y-183212914D01*
X334752976Y-183212914D02*
X334705357Y-183403390D01*
X334705357Y-183403390D02*
X334705357Y-183546247D01*
X334705357Y-183546247D02*
X334752976Y-183736723D01*
X334752976Y-183736723D02*
X334800595Y-183831961D01*
X334800595Y-183831961D02*
X334895833Y-183927200D01*
X334895833Y-183927200D02*
X335038690Y-183974819D01*
X335038690Y-183974819D02*
X335276785Y-183974819D01*
X333752976Y-183974819D02*
X334324404Y-183974819D01*
X334038690Y-183974819D02*
X334038690Y-182974819D01*
X334038690Y-182974819D02*
X334133928Y-183117676D01*
X334133928Y-183117676D02*
X334229166Y-183212914D01*
X334229166Y-183212914D02*
X334324404Y-183260533D01*
X332848214Y-182974819D02*
X333324404Y-182974819D01*
X333324404Y-182974819D02*
X333372023Y-183451009D01*
X333372023Y-183451009D02*
X333324404Y-183403390D01*
X333324404Y-183403390D02*
X333229166Y-183355771D01*
X333229166Y-183355771D02*
X332991071Y-183355771D01*
X332991071Y-183355771D02*
X332895833Y-183403390D01*
X332895833Y-183403390D02*
X332848214Y-183451009D01*
X332848214Y-183451009D02*
X332800595Y-183546247D01*
X332800595Y-183546247D02*
X332800595Y-183784342D01*
X332800595Y-183784342D02*
X332848214Y-183879580D01*
X332848214Y-183879580D02*
X332895833Y-183927200D01*
X332895833Y-183927200D02*
X332991071Y-183974819D01*
X332991071Y-183974819D02*
X333229166Y-183974819D01*
X333229166Y-183974819D02*
X333324404Y-183927200D01*
X333324404Y-183927200D02*
X333372023Y-183879580D01*
X296316785Y-230914819D02*
X296316785Y-229914819D01*
X296316785Y-229914819D02*
X296078690Y-229914819D01*
X296078690Y-229914819D02*
X295935833Y-229962438D01*
X295935833Y-229962438D02*
X295840595Y-230057676D01*
X295840595Y-230057676D02*
X295792976Y-230152914D01*
X295792976Y-230152914D02*
X295745357Y-230343390D01*
X295745357Y-230343390D02*
X295745357Y-230486247D01*
X295745357Y-230486247D02*
X295792976Y-230676723D01*
X295792976Y-230676723D02*
X295840595Y-230771961D01*
X295840595Y-230771961D02*
X295935833Y-230867200D01*
X295935833Y-230867200D02*
X296078690Y-230914819D01*
X296078690Y-230914819D02*
X296316785Y-230914819D01*
X294792976Y-230914819D02*
X295364404Y-230914819D01*
X295078690Y-230914819D02*
X295078690Y-229914819D01*
X295078690Y-229914819D02*
X295173928Y-230057676D01*
X295173928Y-230057676D02*
X295269166Y-230152914D01*
X295269166Y-230152914D02*
X295364404Y-230200533D01*
X293935833Y-230248152D02*
X293935833Y-230914819D01*
X294173928Y-229867200D02*
X294412023Y-230581485D01*
X294412023Y-230581485D02*
X293792976Y-230581485D01*
X113390594Y-227594819D02*
X113390594Y-226594819D01*
X113390594Y-226594819D02*
X113152499Y-226594819D01*
X113152499Y-226594819D02*
X113009642Y-226642438D01*
X113009642Y-226642438D02*
X112914404Y-226737676D01*
X112914404Y-226737676D02*
X112866785Y-226832914D01*
X112866785Y-226832914D02*
X112819166Y-227023390D01*
X112819166Y-227023390D02*
X112819166Y-227166247D01*
X112819166Y-227166247D02*
X112866785Y-227356723D01*
X112866785Y-227356723D02*
X112914404Y-227451961D01*
X112914404Y-227451961D02*
X113009642Y-227547200D01*
X113009642Y-227547200D02*
X113152499Y-227594819D01*
X113152499Y-227594819D02*
X113390594Y-227594819D01*
X111962023Y-226928152D02*
X111962023Y-227594819D01*
X112200118Y-226547200D02*
X112438213Y-227261485D01*
X112438213Y-227261485D02*
X111819166Y-227261485D01*
X322148688Y-210114819D02*
X322148688Y-209114819D01*
X322148688Y-209114819D02*
X321910593Y-209114819D01*
X321910593Y-209114819D02*
X321767736Y-209162438D01*
X321767736Y-209162438D02*
X321672498Y-209257676D01*
X321672498Y-209257676D02*
X321624879Y-209352914D01*
X321624879Y-209352914D02*
X321577260Y-209543390D01*
X321577260Y-209543390D02*
X321577260Y-209686247D01*
X321577260Y-209686247D02*
X321624879Y-209876723D01*
X321624879Y-209876723D02*
X321672498Y-209971961D01*
X321672498Y-209971961D02*
X321767736Y-210067200D01*
X321767736Y-210067200D02*
X321910593Y-210114819D01*
X321910593Y-210114819D02*
X322148688Y-210114819D01*
X320624879Y-210114819D02*
X321196307Y-210114819D01*
X320910593Y-210114819D02*
X320910593Y-209114819D01*
X320910593Y-209114819D02*
X321005831Y-209257676D01*
X321005831Y-209257676D02*
X321101069Y-209352914D01*
X321101069Y-209352914D02*
X321196307Y-209400533D01*
X293315594Y-186294819D02*
X293315594Y-185294819D01*
X293315594Y-185294819D02*
X293077499Y-185294819D01*
X293077499Y-185294819D02*
X292934642Y-185342438D01*
X292934642Y-185342438D02*
X292839404Y-185437676D01*
X292839404Y-185437676D02*
X292791785Y-185532914D01*
X292791785Y-185532914D02*
X292744166Y-185723390D01*
X292744166Y-185723390D02*
X292744166Y-185866247D01*
X292744166Y-185866247D02*
X292791785Y-186056723D01*
X292791785Y-186056723D02*
X292839404Y-186151961D01*
X292839404Y-186151961D02*
X292934642Y-186247200D01*
X292934642Y-186247200D02*
X293077499Y-186294819D01*
X293077499Y-186294819D02*
X293315594Y-186294819D01*
X292267975Y-186294819D02*
X292077499Y-186294819D01*
X292077499Y-186294819D02*
X291982261Y-186247200D01*
X291982261Y-186247200D02*
X291934642Y-186199580D01*
X291934642Y-186199580D02*
X291839404Y-186056723D01*
X291839404Y-186056723D02*
X291791785Y-185866247D01*
X291791785Y-185866247D02*
X291791785Y-185485295D01*
X291791785Y-185485295D02*
X291839404Y-185390057D01*
X291839404Y-185390057D02*
X291887023Y-185342438D01*
X291887023Y-185342438D02*
X291982261Y-185294819D01*
X291982261Y-185294819D02*
X292172737Y-185294819D01*
X292172737Y-185294819D02*
X292267975Y-185342438D01*
X292267975Y-185342438D02*
X292315594Y-185390057D01*
X292315594Y-185390057D02*
X292363213Y-185485295D01*
X292363213Y-185485295D02*
X292363213Y-185723390D01*
X292363213Y-185723390D02*
X292315594Y-185818628D01*
X292315594Y-185818628D02*
X292267975Y-185866247D01*
X292267975Y-185866247D02*
X292172737Y-185913866D01*
X292172737Y-185913866D02*
X291982261Y-185913866D01*
X291982261Y-185913866D02*
X291887023Y-185866247D01*
X291887023Y-185866247D02*
X291839404Y-185818628D01*
X291839404Y-185818628D02*
X291791785Y-185723390D01*
X152310594Y-223454819D02*
X152310594Y-222454819D01*
X152310594Y-222454819D02*
X152072499Y-222454819D01*
X152072499Y-222454819D02*
X151929642Y-222502438D01*
X151929642Y-222502438D02*
X151834404Y-222597676D01*
X151834404Y-222597676D02*
X151786785Y-222692914D01*
X151786785Y-222692914D02*
X151739166Y-222883390D01*
X151739166Y-222883390D02*
X151739166Y-223026247D01*
X151739166Y-223026247D02*
X151786785Y-223216723D01*
X151786785Y-223216723D02*
X151834404Y-223311961D01*
X151834404Y-223311961D02*
X151929642Y-223407200D01*
X151929642Y-223407200D02*
X152072499Y-223454819D01*
X152072499Y-223454819D02*
X152310594Y-223454819D01*
X151358213Y-222550057D02*
X151310594Y-222502438D01*
X151310594Y-222502438D02*
X151215356Y-222454819D01*
X151215356Y-222454819D02*
X150977261Y-222454819D01*
X150977261Y-222454819D02*
X150882023Y-222502438D01*
X150882023Y-222502438D02*
X150834404Y-222550057D01*
X150834404Y-222550057D02*
X150786785Y-222645295D01*
X150786785Y-222645295D02*
X150786785Y-222740533D01*
X150786785Y-222740533D02*
X150834404Y-222883390D01*
X150834404Y-222883390D02*
X151405832Y-223454819D01*
X151405832Y-223454819D02*
X150786785Y-223454819D01*
X284353688Y-229334819D02*
X284353688Y-228334819D01*
X284353688Y-228334819D02*
X284115593Y-228334819D01*
X284115593Y-228334819D02*
X283972736Y-228382438D01*
X283972736Y-228382438D02*
X283877498Y-228477676D01*
X283877498Y-228477676D02*
X283829879Y-228572914D01*
X283829879Y-228572914D02*
X283782260Y-228763390D01*
X283782260Y-228763390D02*
X283782260Y-228906247D01*
X283782260Y-228906247D02*
X283829879Y-229096723D01*
X283829879Y-229096723D02*
X283877498Y-229191961D01*
X283877498Y-229191961D02*
X283972736Y-229287200D01*
X283972736Y-229287200D02*
X284115593Y-229334819D01*
X284115593Y-229334819D02*
X284353688Y-229334819D01*
X282877498Y-228334819D02*
X283353688Y-228334819D01*
X283353688Y-228334819D02*
X283401307Y-228811009D01*
X283401307Y-228811009D02*
X283353688Y-228763390D01*
X283353688Y-228763390D02*
X283258450Y-228715771D01*
X283258450Y-228715771D02*
X283020355Y-228715771D01*
X283020355Y-228715771D02*
X282925117Y-228763390D01*
X282925117Y-228763390D02*
X282877498Y-228811009D01*
X282877498Y-228811009D02*
X282829879Y-228906247D01*
X282829879Y-228906247D02*
X282829879Y-229144342D01*
X282829879Y-229144342D02*
X282877498Y-229239580D01*
X282877498Y-229239580D02*
X282925117Y-229287200D01*
X282925117Y-229287200D02*
X283020355Y-229334819D01*
X283020355Y-229334819D02*
X283258450Y-229334819D01*
X283258450Y-229334819D02*
X283353688Y-229287200D01*
X283353688Y-229287200D02*
X283401307Y-229239580D01*
D11*
%TO.C,D12*%
X261642500Y-238410000D02*
G75*
G02*
X261542500Y-238410000I-50000J0D01*
G01*
X261542500Y-238410000D02*
G75*
G02*
X261642500Y-238410000I50000J0D01*
G01*
%TO.C,D11*%
X227115000Y-193600000D02*
G75*
G02*
X227015000Y-193600000I-50000J0D01*
G01*
X227015000Y-193600000D02*
G75*
G02*
X227115000Y-193600000I50000J0D01*
G01*
%TO.C,D8*%
X180867500Y-211080000D02*
G75*
G02*
X180767500Y-211080000I-50000J0D01*
G01*
X180767500Y-211080000D02*
G75*
G02*
X180867500Y-211080000I50000J0D01*
G01*
%TO.C,D7*%
X193487500Y-234230000D02*
G75*
G02*
X193387500Y-234230000I-50000J0D01*
G01*
X193387500Y-234230000D02*
G75*
G02*
X193487500Y-234230000I50000J0D01*
G01*
%TO.C,D13*%
X300797500Y-198050000D02*
G75*
G02*
X300697500Y-198050000I-50000J0D01*
G01*
X300697500Y-198050000D02*
G75*
G02*
X300797500Y-198050000I50000J0D01*
G01*
%TO.C,D3*%
X112840000Y-189850000D02*
G75*
G02*
X112740000Y-189850000I-50000J0D01*
G01*
X112740000Y-189850000D02*
G75*
G02*
X112840000Y-189850000I50000J0D01*
G01*
%TO.C,D6*%
X205197500Y-208390000D02*
G75*
G02*
X205097500Y-208390000I-50000J0D01*
G01*
X205097500Y-208390000D02*
G75*
G02*
X205197500Y-208390000I50000J0D01*
G01*
%TO.C,D16*%
X333832500Y-234660000D02*
G75*
G02*
X333732500Y-234660000I-50000J0D01*
G01*
X333732500Y-234660000D02*
G75*
G02*
X333832500Y-234660000I50000J0D01*
G01*
%TO.C,D10*%
X296127500Y-235320000D02*
G75*
G02*
X296027500Y-235320000I-50000J0D01*
G01*
X296027500Y-235320000D02*
G75*
G02*
X296127500Y-235320000I50000J0D01*
G01*
%TO.C,D15*%
X335147500Y-184570000D02*
G75*
G02*
X335047500Y-184570000I-50000J0D01*
G01*
X335047500Y-184570000D02*
G75*
G02*
X335147500Y-184570000I50000J0D01*
G01*
%TO.C,D14*%
X296187500Y-231510000D02*
G75*
G02*
X296087500Y-231510000I-50000J0D01*
G01*
X296087500Y-231510000D02*
G75*
G02*
X296187500Y-231510000I50000J0D01*
G01*
%TO.C,D4*%
X113737500Y-228190000D02*
G75*
G02*
X113637500Y-228190000I-50000J0D01*
G01*
X113637500Y-228190000D02*
G75*
G02*
X113737500Y-228190000I50000J0D01*
G01*
%TO.C,D1*%
X322495594Y-210710000D02*
G75*
G02*
X322395594Y-210710000I-50000J0D01*
G01*
X322395594Y-210710000D02*
G75*
G02*
X322495594Y-210710000I50000J0D01*
G01*
%TO.C,D9*%
X293662500Y-186890000D02*
G75*
G02*
X293562500Y-186890000I-50000J0D01*
G01*
X293562500Y-186890000D02*
G75*
G02*
X293662500Y-186890000I50000J0D01*
G01*
%TO.C,D2*%
X152657500Y-224050000D02*
G75*
G02*
X152557500Y-224050000I-50000J0D01*
G01*
X152557500Y-224050000D02*
G75*
G02*
X152657500Y-224050000I50000J0D01*
G01*
%TO.C,D5*%
X284700594Y-229930000D02*
G75*
G02*
X284600594Y-229930000I-50000J0D01*
G01*
X284600594Y-229930000D02*
G75*
G02*
X284700594Y-229930000I50000J0D01*
G01*
%TD*%
M02*
