M48
; DRILL file {KiCad 9.0.6} date 2026-03-28T18:36:45-0500
; FORMAT={-:-/ absolute / metric / decimal}
; #@! TF.CreationDate,2026-03-28T18:36:45-05:00
; #@! TF.GenerationSoftware,Kicad,Pcbnew,9.0.6
; #@! TF.FileFunction,NonPlated,1,2,NPTH
FMAT,2
METRIC
; #@! TA.AperFunction,NonPlated,NPTH,ComponentDrill
T1C1.700
; #@! TA.AperFunction,NonPlated,NPTH,ComponentDrill
T2C1.850
; #@! TA.AperFunction,NonPlated,NPTH,ComponentDrill
T3C2.200
; #@! TA.AperFunction,NonPlated,NPTH,ComponentDrill
T4C4.000
; #@! TA.AperFunction,NonPlated,NPTH,ComponentDrill
T5C5.500
%
G90
G05
T1
X88.66Y-228.67
X89.37Y-190.85
X98.82Y-228.67
X99.53Y-190.85
X127.24Y-228.91
X127.72Y-191.31
X137.4Y-228.91
X137.88Y-191.31
X166.29Y-228.43
X166.56Y-190.8
X176.45Y-228.43
X176.72Y-190.8
X204.96Y-190.54
X205.43Y-230.1
X215.12Y-190.54
X215.59Y-230.1
X240.53Y-191.58
X240.84Y-230.8
X250.69Y-191.58
X251.0Y-230.8
X273.42Y-232.05
X273.47Y-191.9
X283.58Y-232.05
X283.63Y-191.9
X309.33Y-232.98
X310.4Y-190.77
X319.49Y-232.98
X320.56Y-190.77
X342.79Y-190.64
X343.32Y-233.39
X352.95Y-190.64
X353.48Y-233.39
T2
X85.59Y-136.475
X85.59Y-141.325
T3
X82.56Y-136.175
X82.56Y-141.625
T4
X93.74Y-228.67
X94.45Y-190.85
X132.32Y-228.91
X132.8Y-191.31
X171.37Y-228.43
X171.64Y-190.8
X210.04Y-190.54
X210.51Y-230.1
X245.61Y-191.58
X245.92Y-230.8
X278.5Y-232.05
X278.55Y-191.9
X314.41Y-232.98
X315.48Y-190.77
X347.87Y-190.64
X348.4Y-233.39
T5
X88.0Y-244.75
X144.25Y-175.25
X297.75Y-242.5
X354.0Y-134.0
M30
